<svg width="131" height="27" viewBox="0 0 131 27" fill="none" xmlns="http://www.w3.org/2000/svg">
<path d="M19.916 17.532C19.916 18.804 19.76 19.776 19.448 20.448C19.16 21.12 18.404 21.648 17.18 22.032L17.036 22.068V23.76H22.472V23.4H17.396V22.356C18.644 21.972 19.436 21.42 19.772 20.7C20.108 19.956 20.276 18.9 20.276 17.532V8.748C20.276 7.308 19.76 6.144 18.728 5.256C17.72 4.344 15.812 3.888 13.004 3.888C10.196 3.888 8.276 4.344 7.244 5.256C6.236 6.144 5.732 7.308 5.732 8.748V17.532C5.732 18.9 5.9 19.944 6.236 20.664C6.572 21.384 7.364 21.948 8.612 22.356V23.4H3.536V23.76H8.972V22.068L8.828 22.032C7.604 21.648 6.836 21.12 6.524 20.448C6.236 19.776 6.092 18.804 6.092 17.532V8.748C6.092 7.404 6.572 6.324 7.532 5.508C8.516 4.668 10.34 4.248 13.004 4.248C15.668 4.248 17.48 4.668 18.44 5.508C19.424 6.324 19.916 7.404 19.916 8.748V17.532ZM12.032 25.704C12.032 26.16 11.924 26.496 11.708 26.712C11.516 26.904 11.192 27 10.736 27H1.592C1.136 27 0.8 26.904 0.584 26.712C0.392 26.496 0.296 26.16 0.296 25.704V21.492C0.296 21.036 0.392 20.712 0.584 20.52C0.8 20.304 1.136 20.196 1.592 20.196H2.996C2.564 19.596 2.252 18.936 2.06 18.216C1.892 17.496 1.808 16.716 1.808 15.876V7.92C1.808 6.816 1.964 5.82 2.276 4.932C2.612 4.02 3.188 3.24 4.004 2.592C4.844 1.944 5.996 1.44 7.46 1.08C8.924 0.719999 10.772 0.539999 13.004 0.539999C15.236 0.539999 17.084 0.719999 18.548 1.08C20.012 1.44 21.152 1.944 21.968 2.592C22.808 3.24 23.384 4.02 23.696 4.932C24.032 5.82 24.2 6.816 24.2 7.92V15.876C24.2 16.716 24.104 17.496 23.912 18.216C23.744 18.936 23.444 19.596 23.012 20.196H24.416C24.872 20.196 25.196 20.304 25.388 20.52C25.604 20.712 25.712 21.036 25.712 21.492V25.704C25.712 26.16 25.604 26.496 25.388 26.712C25.196 26.904 24.872 27 24.416 27H15.272C14.816 27 14.48 26.904 14.264 26.712C14.072 26.496 13.976 26.16 13.976 25.704V21.6C13.976 21.216 14.048 20.952 14.192 20.808C14.36 20.64 14.612 20.496 14.948 20.376C15.38 20.208 15.668 20.004 15.812 19.764C15.956 19.524 16.028 19.236 16.028 18.9V9.216C16.028 8.76 15.848 8.376 15.488 8.064C15.128 7.728 14.3 7.56 13.004 7.56C11.708 7.56 10.88 7.728 10.52 8.064C10.16 8.376 9.98 8.76 9.98 9.216V18.9C9.98 19.236 10.052 19.524 10.196 19.764C10.34 20.004 10.628 20.208 11.06 20.376C11.396 20.496 11.636 20.64 11.78 20.808C11.948 20.952 12.032 21.216 12.032 21.6V25.704Z" fill="#007BFF"/>
<path d="M42.1404 13.14C41.7084 13.14 41.3964 13.044 41.2044 12.852C41.0124 12.66 40.7124 12.252 40.3044 11.628L35.9124 4.932C35.7684 4.692 35.6004 4.536 35.4084 4.464C35.2164 4.368 35.0244 4.32 34.8324 4.32H34.2204C33.9084 4.32 33.6684 4.416 33.5004 4.608C33.3564 4.776 33.2844 5.052 33.2844 5.436V23.76H33.6444V5.436C33.6444 5.244 33.6804 5.076 33.7524 4.932C33.8244 4.764 33.9804 4.68 34.2204 4.68H34.7604C34.9284 4.68 35.0724 4.704 35.1924 4.752C35.3364 4.8 35.4804 4.944 35.6244 5.184L40.0164 11.808C40.4484 12.456 40.7724 12.9 40.9884 13.14C41.2284 13.38 41.6124 13.5 42.1404 13.5C42.6684 13.5 43.0404 13.38 43.2564 13.14C43.4964 12.9 43.8324 12.456 44.2644 11.808L48.6564 5.184C48.8004 4.944 48.9324 4.8 49.0524 4.752C49.1724 4.704 49.3164 4.68 49.4844 4.68H50.0244C50.2644 4.68 50.4204 4.764 50.4924 4.932C50.5884 5.076 50.6364 5.244 50.6364 5.436V23.76H50.9964V5.436C50.9964 5.052 50.9124 4.776 50.7444 4.608C50.6004 4.416 50.3604 4.32 50.0244 4.32H49.4124C49.2204 4.32 49.0284 4.368 48.8364 4.464C48.6684 4.536 48.5124 4.692 48.3684 4.932L43.9764 11.628C43.5684 12.252 43.2684 12.66 43.0764 12.852C42.8844 13.044 42.5724 13.14 42.1404 13.14ZM36.1284 27H30.7644C30.3084 27 29.9724 26.904 29.7564 26.712C29.5644 26.496 29.4684 26.16 29.4684 25.704V2.376C29.4684 1.92 29.5644 1.596 29.7564 1.404C29.9724 1.188 30.3084 1.08 30.7644 1.08H36.5604C36.9444 1.08 37.2564 1.164 37.4964 1.332C37.7604 1.5 38.0004 1.776 38.2164 2.16L41.4564 8.028C41.5764 8.244 41.6724 8.4 41.7444 8.496C41.8404 8.592 41.9604 8.64 42.1044 8.64H42.4284C42.5724 8.64 42.6804 8.592 42.7524 8.496C42.8484 8.4 42.9564 8.244 43.0764 8.028L46.2804 2.16C46.4964 1.776 46.7244 1.5 46.9644 1.332C47.2284 1.164 47.5524 1.08 47.9364 1.08H53.7684C54.2244 1.08 54.5484 1.188 54.7404 1.404C54.9564 1.596 55.0644 1.92 55.0644 2.376V25.704C55.0644 26.16 54.9564 26.496 54.7404 26.712C54.5484 26.904 54.2244 27 53.7684 27H48.2244C47.7684 27 47.4324 26.904 47.2164 26.712C47.0244 26.496 46.9284 26.16 46.9284 25.704V13.032L44.8044 16.956C44.5884 17.364 44.3244 17.664 44.0124 17.856C43.7244 18.024 43.3524 18.108 42.8964 18.108H41.4564C41.0004 18.108 40.6164 18.024 40.3044 17.856C40.0164 17.664 39.7644 17.364 39.5484 16.956L37.4244 13.032V25.704C37.4244 26.16 37.3164 26.496 37.1004 26.712C36.9084 26.904 36.5844 27 36.1284 27ZM78.0192 27H61.3152C60.8592 27 60.5232 26.904 60.3072 26.712C60.1152 26.496 60.0192 26.16 60.0192 25.704V2.376C60.0192 1.92 60.1152 1.596 60.3072 1.404C60.5232 1.188 60.8592 1.08 61.3152 1.08H78.0192C78.4752 1.08 78.7992 1.188 78.9912 1.404C79.2072 1.596 79.3152 1.92 79.3152 2.376V6.588C79.3152 7.044 79.2072 7.38 78.9912 7.596C78.7992 7.788 78.4752 7.884 78.0192 7.884H68.0832V10.656H75.1032C75.5592 10.656 75.8832 10.764 76.0752 10.98C76.2912 11.172 76.3992 11.496 76.3992 11.952V15.804C76.3992 16.26 76.2912 16.596 76.0752 16.812C75.8832 17.004 75.5592 17.1 75.1032 17.1H68.0832V20.196H78.0192C78.4752 20.196 78.7992 20.304 78.9912 20.52C79.2072 20.712 79.3152 21.036 79.3152 21.492V25.704C79.3152 26.16 79.2072 26.496 78.9912 26.712C78.7992 26.904 78.4752 27 78.0192 27ZM76.0752 23.4H64.3032V14.076H73.1592V13.716H64.3032V4.68H76.0752V4.32H63.9432V23.76H76.0752V23.4ZM103.198 27H91.8581C88.8581 27 86.6261 26.4 85.1621 25.2C83.7221 24 83.0021 22.152 83.0021 19.656V8.424C83.0021 5.928 83.7221 4.08 85.1621 2.88C86.6261 1.68 88.8581 1.08 91.8581 1.08H100.858C101.314 1.08 101.638 1.188 101.83 1.404C102.046 1.596 102.154 1.92 102.154 2.376V6.732C102.154 7.188 102.046 7.524 101.83 7.74C101.638 7.932 101.314 8.028 100.858 8.028H93.3701C92.6261 8.028 92.0741 8.184 91.7141 8.496C91.3541 8.784 91.1741 9.228 91.1741 9.828V18.432C91.1741 19.032 91.3061 19.476 91.5701 19.764C91.8581 20.052 92.2781 20.196 92.8301 20.196H96.3221V14.58C96.3221 14.124 96.4181 13.8 96.6101 13.608C96.8261 13.392 97.1621 13.284 97.6181 13.284H103.198C103.654 13.284 103.978 13.392 104.17 13.608C104.386 13.8 104.494 14.124 104.494 14.58V25.704C104.494 26.16 104.386 26.496 104.17 26.712C103.978 26.904 103.654 27 103.198 27ZM93.4061 23.76H100.57V16.524H100.21V23.4H93.4061C90.9821 23.4 89.3501 23.076 88.5101 22.428C87.6941 21.78 87.2861 20.676 87.2861 19.116V9.036C87.2861 7.452 87.6581 6.336 88.4021 5.688C89.1461 5.016 90.5741 4.68 92.6861 4.68H98.9141V4.32H92.6861C90.3821 4.32 88.8461 4.68 88.0781 5.4C87.3101 6.12 86.9261 7.332 86.9261 9.036V19.116C86.9261 19.956 87.0101 20.676 87.1781 21.276C87.3701 21.852 87.7061 22.332 88.1861 22.716C88.6661 23.076 89.3261 23.34 90.1661 23.508C91.0061 23.676 92.0861 23.76 93.4061 23.76ZM112.522 16.092C112.522 15.444 112.57 14.844 112.666 14.292C112.786 13.74 112.93 13.224 113.098 12.744L115.402 6.84C115.642 6.24 115.906 5.736 116.194 5.328C116.482 4.896 116.986 4.68 117.706 4.68H121.234C121.906 4.68 122.386 4.896 122.674 5.328C122.962 5.736 123.238 6.252 123.502 6.876L125.986 12.744C126.154 13.224 126.286 13.74 126.382 14.292C126.502 14.844 126.562 15.444 126.562 16.092V17.208H112.522V16.092ZM118.282 8.64L116.59 14.112H122.242L120.55 8.64C120.454 8.424 120.346 8.268 120.226 8.172C120.13 8.076 120.01 8.028 119.866 8.028H118.966C118.822 8.028 118.69 8.076 118.57 8.172C118.474 8.268 118.378 8.424 118.282 8.64ZM126.562 23.76H126.922V16.092C126.922 15.42 126.862 14.808 126.742 14.256C126.646 13.68 126.502 13.128 126.31 12.6L123.826 6.732C123.538 6.036 123.226 5.46 122.89 5.004C122.578 4.548 122.026 4.32 121.234 4.32H117.706C116.89 4.32 116.314 4.548 115.978 5.004C115.642 5.46 115.342 6.024 115.078 6.696L112.774 12.6C112.582 13.128 112.426 13.68 112.306 14.256C112.21 14.808 112.162 15.42 112.162 16.092V23.76H112.522V17.568H126.562V23.76ZM116.23 25.704C116.23 26.16 116.122 26.496 115.906 26.712C115.714 26.904 115.39 27 114.934 27H109.642C109.186 27 108.85 26.904 108.634 26.712C108.442 26.496 108.346 26.16 108.346 25.704V16.2C108.346 15.48 108.454 14.652 108.67 13.716C108.91 12.78 109.27 11.688 109.75 10.44L112.882 2.268C113.026 1.86 113.242 1.56 113.53 1.368C113.842 1.176 114.238 1.08 114.718 1.08H124.402C124.858 1.08 125.23 1.176 125.518 1.368C125.83 1.56 126.058 1.86 126.202 2.268L129.334 10.44C129.814 11.688 130.162 12.78 130.378 13.716C130.618 14.652 130.738 15.48 130.738 16.2V25.704C130.738 26.16 130.63 26.496 130.414 26.712C130.222 26.904 129.898 27 129.442 27H124.006C123.526 27 123.166 26.904 122.926 26.712C122.71 26.496 122.602 26.16 122.602 25.704V20.664H116.23V25.704Z" fill="#F1C40F"/>
</svg>
