<svg width="290" height="212" viewBox="0 0 290 212" fill="none" xmlns="http://www.w3.org/2000/svg">
<path opacity="0.5" d="M229.667 6.75H59.6667V205.25H229.667V6.75Z" fill="#007BFF"/>
<path d="M289.333 19H198.333V194H289.333V19Z" fill="url(#paint0_linear)"/>
<path d="M91 19.6666H0V194.667H91V19.6666Z" fill="url(#paint1_linear)"/>
<path d="M286.333 21.6666H201.333V190.333H286.333V21.6666Z" fill="#007BFF"/>
<path d="M3 190.333H88L88 21.6667H3L3 190.333Z" fill="#007BFF"/>
<path d="M74 37H17V47.3333H74V37Z" fill="url(#paint2_linear)"/>
<path d="M272.667 52.6666H215.667V63H272.667V52.6666Z" fill="url(#paint3_linear)"/>
<path d="M272.333 68.6666H215.333V79H272.333V68.6666Z" fill="url(#paint4_linear)"/>
<path d="M272.333 84.6666H215.333V95H272.333V84.6666Z" fill="url(#paint5_linear)"/>
<path d="M272.333 100.667H215.333V111H272.333V100.667Z" fill="url(#paint6_linear)"/>
<path d="M272.333 116.667H215.333V127H272.333V116.667Z" fill="url(#paint7_linear)"/>
<path d="M272.333 132.667H215.333V143H272.333V132.667Z" fill="url(#paint8_linear)"/>
<path d="M272.333 148.667H215.333V159H272.333V148.667Z" fill="url(#paint9_linear)"/>
<path d="M272.333 164.667H215.333V175H272.333V164.667Z" fill="url(#paint10_linear)"/>
<path d="M272.333 37H215.333V47.3333H272.333V37Z" fill="url(#paint11_linear)"/>
<path d="M74 53.3334H17V63.6667H74V53.3334Z" fill="url(#paint12_linear)"/>
<path d="M74 69H17V79.3333H74V69Z" fill="url(#paint13_linear)"/>
<path d="M74 84.6666H17V95H74V84.6666Z" fill="url(#paint14_linear)"/>
<path d="M74 100.667H17V111H74V100.667Z" fill="url(#paint15_linear)"/>
<path d="M74 116.667H17V127H74V116.667Z" fill="url(#paint16_linear)"/>
<path d="M73 38.3334H18.3333V46.3334H73V38.3334Z" fill="white"/>
<path d="M72.8333 54H18.1667V62H72.8333V54Z" fill="white"/>
<path d="M72.8333 70H18.1667V78H72.8333V70Z" fill="white"/>
<path d="M72.8333 86H18.1667V94H72.8333V86Z" fill="white"/>
<path d="M72.8333 102H18.1667V110H72.8333V102Z" fill="white"/>
<path d="M72.8333 118H18.1667V126H72.8333V118Z" fill="white"/>
<path d="M74 132.667H17V143H74V132.667Z" fill="url(#paint17_linear)"/>
<path d="M72.8333 134H18.1667V142H72.8333V134Z" fill="white"/>
<path d="M72.8333 134H18.1667V142H72.8333V134Z" fill="white"/>
<path d="M72.8333 150H18.1667V158H72.8333V150Z" fill="white"/>
<path d="M72.8333 166H18.1667V174H72.8333V166Z" fill="white"/>
<path d="M271.333 38H216.667V46H271.333V38Z" fill="white"/>
<path d="M271.333 54H216.667V62H271.333V54Z" fill="white"/>
<path d="M271.333 70H216.667V78H271.333V70Z" fill="white"/>
<path d="M271.333 86H216.667V94H271.333V86Z" fill="white"/>
<path d="M271.333 102H216.667V110H271.333V102Z" fill="white"/>
<path d="M271.333 118H216.667V126H271.333V118Z" fill="white"/>
<path d="M271.333 134H216.667V142H271.333V134Z" fill="white"/>
<path d="M271.333 150H216.667V158H271.333V150Z" fill="white"/>
<path d="M271.333 166H216.667V174H271.333V166Z" fill="white"/>
<path d="M245 199H44V211.667H245V199Z" fill="url(#paint18_linear)"/>
<path d="M243.667 200.333H45.6667V210.333H243.667V200.333Z" fill="#007BFF"/>
<path d="M245.333 0.666626H44.6667V13.6666H245.333V0.666626Z" fill="url(#paint19_linear)"/>
<path d="M243.667 1.66663H45.6667V11.6666H243.667V1.66663Z" fill="#007BFF"/>
<path opacity="0.5" d="M193.667 21.6666H96.3333V190.333H193.667V21.6666Z" fill="#263238"/>
<path d="M219.887 95.0167C222.22 98.1434 218.727 101.837 218.727 101.837L219.313 102.04C218.45 102.997 215.04 107.313 201.893 126.84C185.06 151.84 162.377 158.077 162.377 158.077C159.62 155.923 156.485 154.305 153.133 153.307V150.947C157.416 149.683 161.33 147.402 164.54 144.298C167.75 141.194 170.161 137.358 171.567 133.12C173.574 129.147 174.617 124.758 174.613 120.307C174.613 104.307 161.357 91.3267 145.007 91.3267C128.657 91.3267 115.4 104.303 115.4 120.307C115.396 124.758 116.44 129.147 118.447 133.12C119.852 137.358 122.263 141.194 125.473 144.298C128.683 147.402 132.597 149.683 136.88 150.947V153.307C133.528 154.305 130.393 155.923 127.637 158.077V158.077C127.637 158.077 104.943 151.833 88.11 126.833C74.9633 107.307 71.5533 102.987 70.69 102.033L71.2766 101.83C71.2766 101.83 67.7933 98.1367 70.1167 95.01C72.44 91.8834 54.7333 88.19 56.7633 95.01C58.7933 101.83 61.4066 105.24 61.4066 105.24C61.4066 105.24 98.4733 163.7 117.823 173.36C117.366 175.341 117.136 177.367 117.137 179.4V190.767H172.863V179.4C172.864 177.367 172.634 175.341 172.177 173.36C191.51 163.693 228.593 105.243 228.593 105.243C228.593 105.243 231.207 101.833 233.237 95.0134C235.267 88.1934 217.563 91.89 219.887 95.0167Z" fill="url(#paint20_linear)"/>
<path d="M145 150.177C160.659 150.177 173.353 137.482 173.353 121.823C173.353 106.164 160.659 93.47 145 93.47C129.341 93.47 116.647 106.164 116.647 121.823C116.647 137.482 129.341 150.177 145 150.177Z" fill="#263238"/>
<path d="M145 152.96C159.739 152.96 171.687 141.012 171.687 126.273C171.687 111.535 159.739 99.5867 145 99.5867C130.261 99.5867 118.313 111.535 118.313 126.273C118.313 141.012 130.261 152.96 145 152.96Z" fill="#F8C198"/>
<path d="M134.437 123.77C136.279 123.77 137.773 122.276 137.773 120.433C137.773 118.591 136.279 117.097 134.437 117.097C132.594 117.097 131.1 118.591 131.1 120.433C131.1 122.276 132.594 123.77 134.437 123.77Z" fill="#263238"/>
<path d="M156.12 123.77C157.963 123.77 159.457 122.276 159.457 120.433C159.457 118.591 157.963 117.097 156.12 117.097C154.277 117.097 152.783 118.591 152.783 120.433C152.783 122.276 154.277 123.77 156.12 123.77Z" fill="#263238"/>
<path d="M152.783 138.5C152.783 140.5 149.3 143.783 145 143.783C140.7 143.783 137.217 140.5 137.217 138.5C137.217 136.5 140.7 136.553 145 136.553C149.3 136.553 152.783 136.5 152.783 138.5Z" fill="white"/>
<path d="M135.27 121.547C135.885 121.547 136.383 121.048 136.383 120.433C136.383 119.818 135.885 119.32 135.27 119.32C134.655 119.32 134.157 119.818 134.157 120.433C134.157 121.048 134.655 121.547 135.27 121.547Z" fill="white"/>
<path d="M157.23 121.547C157.845 121.547 158.343 121.048 158.343 120.433C158.343 119.818 157.845 119.32 157.23 119.32C156.615 119.32 156.117 119.818 156.117 120.433C156.117 121.048 156.615 121.547 157.23 121.547Z" fill="white"/>
<path d="M147.667 111.46C146.04 111.46 144.58 110.047 144.407 108.43C144.35 107.617 144.544 106.807 144.961 106.107C145.378 105.407 145.998 104.851 146.74 104.513C146.892 104.435 147.059 104.392 147.23 104.387C147.79 104.387 148.067 105.053 148.247 105.583C148.807 107.223 149.8 108.823 151.36 109.583C152.92 110.343 155.1 109.953 155.923 108.427C153.717 107.443 152.773 104.357 154.057 102.31C154.553 101.52 155.327 100.85 155.483 99.93C155.77 98.2633 153.943 97.05 152.327 96.55C147.66 95.1067 131.393 94.9467 130.497 101.91C129.557 109.257 142.543 112.433 147.667 111.46Z" fill="#263238"/>
<path d="M121.155 130.955C122.012 130.617 121.929 128.375 120.971 125.946C120.013 123.518 118.542 121.823 117.686 122.161C116.83 122.499 116.912 124.741 117.87 127.17C118.828 129.598 120.299 131.293 121.155 130.955Z" fill="#F8C198"/>
<path d="M172.122 127.152C173.08 124.724 173.162 122.481 172.306 122.144C171.45 121.806 169.979 123.5 169.021 125.929C168.063 128.357 167.98 130.6 168.837 130.937C169.693 131.275 171.164 129.58 172.122 127.152Z" fill="#F8C198"/>
<path d="M161.637 158.78C161.637 158.78 183.36 152.68 199.483 128.217C215.607 103.753 216.44 103.687 216.44 103.687L225.057 107.09C225.057 107.09 185.03 171.583 167.797 174.92C150.563 178.257 161.637 158.78 161.637 158.78Z" fill="#F1C40F"/>
<path d="M215.61 103.757C215.61 103.757 218.943 100.143 216.723 97.09C214.503 94.0367 231.457 90.4233 229.51 97.09C227.563 103.757 225.063 107.09 225.063 107.09L215.61 103.757Z" fill="#F8C198"/>
<path d="M128.363 158.78C128.363 158.78 106.64 152.68 90.5167 128.217C74.3933 103.753 73.56 103.687 73.56 103.687L64.9433 107.09C64.9433 107.09 104.973 171.583 122.21 174.92C139.447 178.257 128.363 158.78 128.363 158.78Z" fill="#F1C40F"/>
<path d="M74.39 103.757C74.39 103.757 71.0566 100.143 73.2766 97.09C75.4967 94.0367 58.5433 90.4233 60.49 97.09C62.4367 103.757 64.9367 107.09 64.9367 107.09L74.39 103.757Z" fill="#F8C198"/>
<g opacity="0.2">
<path opacity="0.2" d="M154.097 98.2566C153.937 99.1766 153.163 99.8433 152.67 100.637C151.547 102.43 152.13 105.023 153.777 106.303C153.54 105.703 153.442 105.057 153.491 104.414C153.541 103.771 153.735 103.147 154.06 102.59C154.557 101.8 155.33 101.13 155.487 100.21C155.667 99.1666 155.017 98.3 154.11 97.6766C154.134 97.8696 154.129 98.065 154.097 98.2566V98.2566Z" fill="white"/>
<path opacity="0.2" d="M147.153 104.67C147.047 104.42 146.947 104.167 146.86 103.913C146.68 103.383 146.403 102.733 145.843 102.717C145.673 102.722 145.505 102.765 145.353 102.843C144.612 103.181 143.991 103.737 143.574 104.437C143.157 105.137 142.964 105.947 143.02 106.76C143.082 107.25 143.247 107.722 143.503 108.144C143.76 108.566 144.103 108.93 144.51 109.21C144.463 109.045 144.43 108.877 144.41 108.707C144.354 107.894 144.547 107.083 144.964 106.383C145.381 105.683 146.002 105.128 146.743 104.79C146.872 104.727 147.011 104.687 147.153 104.67V104.67Z" fill="white"/>
<path opacity="0.2" d="M144.803 109.95C140.75 110.12 134.21 108.573 130.987 105.283C133.393 110.403 143.337 112.547 147.653 111.723C147.065 111.703 146.491 111.529 145.991 111.218C145.491 110.907 145.081 110.469 144.803 109.95V109.95Z" fill="white"/>
<path opacity="0.2" d="M154.227 107.203C153.253 108.347 151.367 108.587 149.977 107.91C149.523 107.686 149.106 107.393 148.743 107.04C149.282 108.243 150.205 109.232 151.367 109.853C152.927 110.61 155.107 110.223 155.93 108.697C155.229 108.375 154.637 107.856 154.227 107.203Z" fill="white"/>
</g>
<path opacity="0.2" d="M223.95 107.09C223.95 107.09 183.92 171.583 166.667 174.92C165.67 175.12 164.659 175.243 163.643 175.29C165.032 175.33 166.42 175.205 167.78 174.92C185.017 171.587 225.047 107.09 225.047 107.09L224.153 106.773C224.03 106.983 223.95 107.09 223.95 107.09Z" fill="white"/>
<path opacity="0.2" d="M66.05 107.09C66.05 107.09 106.08 171.583 123.333 174.92C124.33 175.12 125.341 175.243 126.357 175.29C124.968 175.33 123.58 175.205 122.22 174.92C104.983 171.587 64.9533 107.09 64.9533 107.09L65.8467 106.773C65.97 106.983 66.05 107.09 66.05 107.09Z" fill="white"/>
<path d="M145 152.96C148.505 152.96 151.975 153.65 155.213 154.991C158.45 156.332 161.392 158.298 163.87 160.776C166.348 163.254 168.314 166.196 169.655 169.434C170.996 172.672 171.687 176.142 171.687 179.647V190.767H118.313V179.647C118.313 176.142 119.004 172.672 120.345 169.434C121.686 166.196 123.652 163.254 126.13 160.776C128.608 158.298 131.55 156.332 134.787 154.991C138.025 153.65 141.495 152.96 145 152.96V152.96Z" fill="#F1C40F"/>
<path opacity="0.2" d="M145.277 153.1C144.306 153.1 143.335 153.152 142.37 153.257C142.703 153.257 143.007 153.237 143.33 153.237C150.408 153.237 157.196 156.048 162.2 161.053C167.205 166.058 170.017 172.846 170.017 179.923V190.903H171.963V179.787C171.963 172.709 169.152 165.921 164.147 160.916C159.142 155.912 152.354 153.1 145.277 153.1Z" fill="white"/>
<path opacity="0.2" d="M144.723 153.1C145.694 153.1 146.665 153.152 147.63 153.257C147.297 153.257 146.993 153.237 146.67 153.237C139.592 153.237 132.804 156.048 127.8 161.053C122.795 166.058 119.983 172.846 119.983 179.923V190.903H118.037V179.787C118.037 172.709 120.848 165.921 125.853 160.916C130.858 155.912 137.646 153.1 144.723 153.1V153.1Z" fill="white"/>
<path d="M152.783 153.377C152.783 149.078 149.299 145.593 145 145.593C140.701 145.593 137.217 149.078 137.217 153.377V156.573C137.217 160.872 140.701 164.357 145 164.357C149.299 164.357 152.783 160.872 152.783 156.573V153.377Z" fill="#F8C198"/>
<defs>
<linearGradient id="paint0_linear" x1="243.833" y1="194" x2="243.833" y2="19" gradientUnits="userSpaceOnUse">
<stop stop-color="#808080" stop-opacity="0.25"/>
<stop offset="0.54" stop-color="#808080" stop-opacity="0.12"/>
<stop offset="1" stop-color="#808080" stop-opacity="0.1"/>
</linearGradient>
<linearGradient id="paint1_linear" x1="12421.5" y1="110620" x2="12421.5" y2="18744.7" gradientUnits="userSpaceOnUse">
<stop stop-color="#808080" stop-opacity="0.25"/>
<stop offset="0.54" stop-color="#808080" stop-opacity="0.12"/>
<stop offset="1" stop-color="#808080" stop-opacity="0.1"/>
</linearGradient>
<linearGradient id="paint2_linear" x1="45.5" y1="47.3333" x2="45.5" y2="37" gradientUnits="userSpaceOnUse">
<stop stop-opacity="0.12"/>
<stop offset="0.55" stop-opacity="0.09"/>
<stop offset="1" stop-opacity="0.02"/>
</linearGradient>
<linearGradient id="paint3_linear" x1="41968.2" y1="2501.67" x2="41968.2" y2="2181.33" gradientUnits="userSpaceOnUse">
<stop stop-opacity="0.12"/>
<stop offset="0.55" stop-opacity="0.09"/>
<stop offset="1" stop-opacity="0.02"/>
</linearGradient>
<linearGradient id="paint4_linear" x1="41910.8" y1="3013.67" x2="41910.8" y2="2693.33" gradientUnits="userSpaceOnUse">
<stop stop-opacity="0.12"/>
<stop offset="0.55" stop-opacity="0.09"/>
<stop offset="1" stop-opacity="0.02"/>
</linearGradient>
<linearGradient id="paint5_linear" x1="41910.8" y1="3525.67" x2="41910.8" y2="3205.33" gradientUnits="userSpaceOnUse">
<stop stop-opacity="0.12"/>
<stop offset="0.55" stop-opacity="0.09"/>
<stop offset="1" stop-opacity="0.02"/>
</linearGradient>
<linearGradient id="paint6_linear" x1="41910.8" y1="4037.66" x2="41910.8" y2="3717.33" gradientUnits="userSpaceOnUse">
<stop stop-opacity="0.12"/>
<stop offset="0.55" stop-opacity="0.09"/>
<stop offset="1" stop-opacity="0.02"/>
</linearGradient>
<linearGradient id="paint7_linear" x1="41910.8" y1="4549.66" x2="41910.8" y2="4229.33" gradientUnits="userSpaceOnUse">
<stop stop-opacity="0.12"/>
<stop offset="0.55" stop-opacity="0.09"/>
<stop offset="1" stop-opacity="0.02"/>
</linearGradient>
<linearGradient id="paint8_linear" x1="41910.8" y1="5061.65" x2="41910.8" y2="4741.32" gradientUnits="userSpaceOnUse">
<stop stop-opacity="0.12"/>
<stop offset="0.55" stop-opacity="0.09"/>
<stop offset="1" stop-opacity="0.02"/>
</linearGradient>
<linearGradient id="paint9_linear" x1="41910.8" y1="5573.66" x2="41910.8" y2="5253.33" gradientUnits="userSpaceOnUse">
<stop stop-opacity="0.12"/>
<stop offset="0.55" stop-opacity="0.09"/>
<stop offset="1" stop-opacity="0.02"/>
</linearGradient>
<linearGradient id="paint10_linear" x1="41910.8" y1="6085.66" x2="41910.8" y2="5765.33" gradientUnits="userSpaceOnUse">
<stop stop-opacity="0.12"/>
<stop offset="0.55" stop-opacity="0.09"/>
<stop offset="1" stop-opacity="0.02"/>
</linearGradient>
<linearGradient id="paint11_linear" x1="41910.8" y1="37" x2="41910.8" y2="37" gradientUnits="userSpaceOnUse">
<stop stop-opacity="0.12"/>
<stop offset="0.55" stop-opacity="0.09"/>
<stop offset="1" stop-opacity="0.02"/>
</linearGradient>
<linearGradient id="paint12_linear" x1="2924" y1="2362.83" x2="12671" y2="2362.83" gradientUnits="userSpaceOnUse">
<stop stop-opacity="0.12"/>
<stop offset="0.55" stop-opacity="0.09"/>
<stop offset="1" stop-opacity="0.02"/>
</linearGradient>
<linearGradient id="paint13_linear" x1="2924" y1="2864.16" x2="12671" y2="2864.16" gradientUnits="userSpaceOnUse">
<stop stop-opacity="0.12"/>
<stop offset="0.55" stop-opacity="0.09"/>
<stop offset="1" stop-opacity="0.02"/>
</linearGradient>
<linearGradient id="paint14_linear" x1="2924" y1="3365.5" x2="12671" y2="3365.5" gradientUnits="userSpaceOnUse">
<stop stop-opacity="0.12"/>
<stop offset="0.55" stop-opacity="0.09"/>
<stop offset="1" stop-opacity="0.02"/>
</linearGradient>
<linearGradient id="paint15_linear" x1="2924" y1="3877.5" x2="12671" y2="3877.5" gradientUnits="userSpaceOnUse">
<stop stop-opacity="0.12"/>
<stop offset="0.55" stop-opacity="0.09"/>
<stop offset="1" stop-opacity="0.02"/>
</linearGradient>
<linearGradient id="paint16_linear" x1="2924" y1="4389.49" x2="12671" y2="4389.49" gradientUnits="userSpaceOnUse">
<stop stop-opacity="0.12"/>
<stop offset="0.55" stop-opacity="0.09"/>
<stop offset="1" stop-opacity="0.02"/>
</linearGradient>
<linearGradient id="paint17_linear" x1="2924" y1="4901.48" x2="12671" y2="4901.48" gradientUnits="userSpaceOnUse">
<stop stop-opacity="0.12"/>
<stop offset="0.55" stop-opacity="0.09"/>
<stop offset="1" stop-opacity="0.02"/>
</linearGradient>
<linearGradient id="paint18_linear" x1="26576" y1="8609.67" x2="147779" y2="8609.67" gradientUnits="userSpaceOnUse">
<stop stop-color="#808080" stop-opacity="0.25"/>
<stop offset="0.54" stop-color="#808080" stop-opacity="0.12"/>
<stop offset="1" stop-color="#808080" stop-opacity="0.1"/>
</linearGradient>
<linearGradient id="paint19_linear" x1="87334.7" y1="1157.67" x2="87334.7" y2="650.667" gradientUnits="userSpaceOnUse">
<stop stop-color="#808080" stop-opacity="0.25"/>
<stop offset="0.54" stop-color="#808080" stop-opacity="0.12"/>
<stop offset="1" stop-color="#808080" stop-opacity="0.1"/>
</linearGradient>
<linearGradient id="paint20_linear" x1="106312" y1="70294.6" x2="106312" y2="40531.8" gradientUnits="userSpaceOnUse">
<stop stop-color="#808080" stop-opacity="0.25"/>
<stop offset="0.54" stop-color="#808080" stop-opacity="0.12"/>
<stop offset="1" stop-color="#808080" stop-opacity="0.1"/>
</linearGradient>
</defs>
</svg>
