<svg width="485" height="437" viewBox="0 0 485 437" fill="none" xmlns="http://www.w3.org/2000/svg">
<path opacity="0.1" d="M152.617 428.4C203.869 428.4 245.417 420.005 245.417 409.649C245.417 399.294 203.869 390.899 152.617 390.899C101.365 390.899 59.8169 399.294 59.8169 409.649C59.8169 420.005 101.365 428.4 152.617 428.4Z" fill="#007BFF"/>
<path d="M247.994 196.325L231.852 184.718L239.994 171.79L197.362 168.165L182.043 180.801L162.866 169.334L146.873 171.386L146.683 166.889C146.485 162.201 146.044 157.529 145.36 152.894C145.429 151.488 145.476 149.875 145.471 148.122C145.471 140.73 144.533 130.933 140.412 124.402L141.361 115.308L133.667 105.612C134.902 102.987 136.311 100.458 137.883 98.0462C138.146 97.6415 138.41 97.2481 138.694 96.8659C148.68 96.0958 156.559 87.3387 156.559 76.6312C156.559 76.1365 156.559 75.6419 156.506 75.1529C156.506 74.9562 156.469 74.7538 156.448 74.5571C157.423 75.1192 158.408 75.6813 159.394 76.2433C159.578 76.5244 159.789 76.8054 160.021 77.137L160.068 77.1989L160.363 77.5867L160.458 77.7047C160.564 77.8396 160.674 77.9689 160.785 78.1038L160.859 78.1937C161.138 78.5254 161.433 78.8626 161.749 79.1942C161.787 79.2269 161.822 79.2626 161.855 79.301L162.25 79.6945L162.361 79.8013C162.698 80.1217 163.056 80.4308 163.415 80.7231L163.53 80.813L163.984 81.1446L164.131 81.2458C164.305 81.3582 164.484 81.4763 164.658 81.5831L164.721 81.6224C164.927 81.7404 165.138 81.8528 165.348 81.9596L165.454 82.0046C165.633 82.087 165.809 82.1657 165.981 82.2407L166.144 82.3025C166.329 82.37 166.508 82.4318 166.698 82.488L166.813 82.5217C167.045 82.5835 167.277 82.6341 167.514 82.6735H167.541C167.764 82.712 167.989 82.7364 168.215 82.7465H168.368C168.57 82.7578 168.772 82.7578 168.974 82.7465H169.106C169.359 82.731 169.61 82.6991 169.859 82.651C171.038 82.4856 172.171 82.0525 173.179 81.3807C173.436 81.1975 173.664 80.9717 173.854 80.7118C174.908 79.2392 173.748 77.626 173.748 77.626C173.337 76.5806 170.671 75.8443 170.671 75.8443C170.671 75.8443 162.239 72.0896 162.239 69.0994C162.239 66.1091 160.131 50.5959 138.373 47.0492C138.373 47.0492 124.218 46.2004 120.24 54.2831L120.155 55.2274C118.985 56.0086 118.016 57.5768 116.862 58.0377C116.363 58.152 115.882 58.3412 115.434 58.5998V58.493C115.3 58.6173 115.191 58.7681 115.112 58.937C114.864 59.4632 114.716 60.0361 114.675 60.6233C114.556 61.3406 114.323 62.0307 113.984 62.6636C113.89 62.8434 113.785 63.0162 113.668 63.1807L113.579 63.3325C114.191 63.3833 114.805 63.2773 115.37 63.0233C115.281 63.7929 115.104 64.5479 114.843 65.2716C115.178 65.2832 115.509 65.1919 115.797 65.0085C116.085 64.8252 116.317 64.5575 116.467 64.2374V64.1924L116.535 64.0913C116.668 63.8311 116.777 63.5582 116.862 63.2763L116.804 63.3437C116.909 62.9784 117.004 62.6074 117.12 62.2477C117.173 62.045 117.261 61.8545 117.378 61.6856C117.519 61.5344 117.691 61.4205 117.88 61.3531C118.07 61.2857 118.271 61.2668 118.469 61.2978L118.253 66.171H118.348C118.221 66.5254 118.066 66.8677 117.884 67.1939C117.136 68.4867 115.776 69.3692 115.276 70.7856C115.06 71.4687 114.977 72.1918 115.033 72.9102C115.033 73.3318 115.081 73.759 115.112 74.1805V74.1468C115.186 75.2709 115.207 76.3389 114.638 77.2438C114.248 77.8621 113.621 78.3286 113.405 79.0312C113.345 79.227 113.318 79.4325 113.326 79.6383C113.368 80.2542 113.489 80.8612 113.684 81.4425C113.686 81.4314 113.686 81.4199 113.684 81.4088C113.816 81.8364 113.846 82.292 113.774 82.7353C113.537 83.8595 112.256 84.7981 112.319 85.8717C112.316 86.0129 112.335 86.1537 112.377 86.2876C112.624 86.812 113.05 87.2147 113.568 87.4118C114.381 87.9046 115.314 88.124 116.245 88.0413C116.594 87.974 116.932 87.8508 117.246 87.6759C116.878 88.5809 116.498 89.4746 116.113 90.3233C116.055 90.4582 115.992 90.5931 115.929 90.728C115.929 90.728 112.672 88.4066 110.823 93.1393C110.283 94.1228 109.896 95.1935 109.679 96.3094C109.586 96.7558 109.456 97.1923 109.289 97.6134C108.468 99.0962 107.239 100.274 105.769 100.986C101.996 102.829 86.7558 123.104 86.487 128.353C86.3551 130.403 86.0303 132.433 85.5174 134.412C84.3177 139.075 84.0095 143.948 84.611 148.74C84.7993 150.289 85.1114 151.817 85.5438 153.309C87.1616 158.554 88.2419 168.339 88.2419 168.339L89.9914 185.325C89.9265 187.67 90.0216 190.016 90.276 192.346C88.4895 194.521 81.3174 203.587 84.0577 206.055C86.1656 207.999 89.8544 207.679 91.9254 207.28C90.1811 211.883 87.4356 219.887 87.072 225.384C86.545 233.518 87.9731 244.293 90.2338 248.429C92.4945 252.566 100.03 263.178 100.03 263.178C100.03 263.178 99.6772 277.736 102.37 283.025C105.063 288.314 106.148 299.286 106.148 299.286C106.148 299.286 108.662 308.549 107.403 311.955C106.143 315.361 109.737 318.194 105.964 320.459C102.191 322.725 97.3638 373.778 97.3638 373.778C97.3638 373.778 95.4192 407.238 97.3638 408.941C97.4678 409.022 97.579 409.092 97.6958 409.149V420.391C97.6958 420.391 96.3467 422.751 101.832 423.229C105.59 423.55 116.24 424.275 122.558 424.696L127.454 425.022C127.454 425.022 139.047 427.484 144.169 425.022C149.292 422.56 158.371 422.617 157.022 416.113C156.843 415.228 156.604 414.358 156.306 413.511C154.825 409.475 152.311 409.014 147.679 407.89C147.41 407.828 147.152 407.772 146.915 407.727C142.035 406.822 140.433 409.245 137.698 406.091C135.322 403.365 127.754 400.313 125.177 399.347C125.241 399.144 125.32 398.948 125.383 398.74C124.653 398.608 123.975 398.254 123.428 397.722L130.41 398.194L134.568 398.47C134.568 398.47 144.422 400.566 148.796 398.47C153.17 396.373 160.864 396.429 159.715 390.904C159.564 390.151 159.361 389.411 159.109 388.69C157.85 385.261 155.71 384.884 151.774 383.935C151.547 383.884 151.336 383.833 151.126 383.794C146.978 383.024 145.619 385.081 143.295 382.406C141.303 380.124 135.016 377.566 132.755 376.695C132.755 375.447 131.174 373.671 130.178 371.889C129.008 369.81 131.169 362.531 131.169 362.531L132.402 332.33C132.872 332.107 133.368 331.956 133.878 331.881C133.878 331.881 139.453 326.204 138.194 320.156C137.937 318.327 137.803 316.48 137.793 314.631C139.627 312.815 142.151 310.134 142.868 308.482C144.038 305.789 142.868 292.743 142.868 292.743V242.859L152.195 243.865L160.658 244.793L163.235 245.074L171.699 245.984L191.149 248.081L208.676 244.54L216.259 243.011L231.852 239.863V199.169L247.994 196.325ZM119.618 61.4776L118.532 61.354C118.891 61.3708 119.27 61.4439 119.618 61.4776Z" fill="url(#paint0_linear)"/>
<path d="M210.162 222.748C204.893 230.792 185.948 226.531 185.948 226.531L171.266 211.878L169.29 209.894L172.605 202.384C172.605 202.384 173.659 202.693 175.466 203.244C184.957 206.184 214.61 215.986 210.162 222.748Z" fill="#EFB7B9"/>
<path opacity="0.1" d="M175.456 203.244C174.808 205.65 173.032 209.253 171.266 211.878L169.29 209.894L172.605 202.384C172.605 202.384 173.669 202.693 175.456 203.244Z" fill="black"/>
<path d="M125.104 118.562C125.104 118.562 111.571 124.964 112.235 140.685C112.713 150.814 113.747 160.903 115.334 170.902C115.334 170.902 112.567 194.56 124.087 200.659C135.606 206.757 146.267 211.771 146.267 211.771C146.267 211.771 164.289 213.839 166.529 214.694C168.769 215.548 175.767 202.485 174.476 200.451C173.185 198.416 156.643 194.15 154.535 190.755C152.427 187.36 147.553 185.263 147.553 185.263C147.553 185.263 142.52 182.015 142.177 179.081C141.835 176.147 143.163 173.96 143.5 172.673C143.837 171.386 144.691 158.958 144.691 158.958C144.691 158.958 150.372 114.723 125.104 118.562Z" fill="#DCE6F2"/>
<path opacity="0.1" d="M134.036 170.256C134.036 170.256 115.471 173.572 117.268 180.503C117.268 180.503 124.007 173.021 134.036 170.256Z" fill="black"/>
<path opacity="0.1" d="M134.178 173.061C134.178 173.061 123.971 181.947 125.968 182.402C127.965 182.858 134.178 173.061 134.178 173.061Z" fill="black"/>
<path opacity="0.1" d="M139.084 176.158C139.084 176.158 136.349 182.133 138.03 181.728C139.711 181.323 139.084 176.158 139.084 176.158Z" fill="black"/>
<path opacity="0.1" d="M176.141 203.879L175.013 203.536C175.335 202.412 175.424 201.502 175.161 201.08C173.87 199.046 157.338 194.785 155.236 191.384C153.133 187.984 148.253 185.893 148.253 185.893C148.253 185.893 143.221 182.644 142.878 179.71C142.536 176.776 143.864 174.59 144.201 173.302C144.538 172.015 145.392 159.582 145.392 159.582C145.392 159.582 151.057 115.353 125.789 119.191C125.789 119.191 112.256 125.599 112.915 141.32C113.393 151.449 114.429 161.539 116.019 171.538C116.019 171.538 113.252 195.195 124.772 201.294C136.291 207.392 146.952 212.406 146.952 212.406C146.952 212.406 164.969 214.469 167.214 215.329C168.062 215.655 169.596 213.974 171.098 211.664L171.951 212.513L186.633 227.161C186.633 227.161 205.578 231.427 210.847 223.383C215.3 216.616 185.653 206.813 176.141 203.879Z" fill="black"/>
<path d="M117.315 59.5553C116.799 59.6629 116.305 59.8665 115.855 60.1567C115.328 60.6233 115.328 61.4214 115.197 62.1184C115.042 63.0879 114.681 64.0069 114.143 64.8051C114.742 64.852 115.344 64.746 115.897 64.496C115.807 65.2653 115.63 66.0202 115.37 66.7442C115.699 66.7532 116.023 66.6609 116.303 66.4784C116.583 66.296 116.808 66.0311 116.951 65.7157C117.23 65.0823 117.451 64.4216 117.61 63.7428C117.66 63.5398 117.745 63.3489 117.863 63.1807C118.348 62.568 119.249 62.8434 119.997 62.9221C120.62 62.9781 121.245 62.8555 121.809 62.5669C122.372 62.2783 122.853 61.8343 123.201 61.2809C123.997 59.9937 124.044 56.7 122.147 56.3515C120.166 56.003 118.933 58.9146 117.315 59.5553Z" fill="#965D7B"/>
<g opacity="0.1">
<path opacity="0.1" d="M115.803 60.8481C115.85 60.5727 115.882 60.286 115.94 60.0106C115.439 60.4771 115.413 61.2696 115.281 61.9722C115.214 62.3776 115.11 62.7749 114.97 63.1582C115.385 62.4528 115.668 61.6683 115.803 60.8481Z" fill="black"/>
<path opacity="0.1" d="M115.971 65.4908C116.234 64.7676 116.411 64.0124 116.498 63.2425C115.97 63.4794 115.399 63.5851 114.828 63.5517C114.661 63.947 114.458 64.3236 114.222 64.6758C114.819 64.7251 115.419 64.6211 115.971 64.3723C115.884 65.1421 115.707 65.8974 115.444 66.6206C115.772 66.6288 116.096 66.5362 116.376 66.3539C116.657 66.1715 116.882 65.907 117.025 65.592C117.156 65.3365 117.262 65.0671 117.341 64.7882C117.187 65.0187 116.98 65.2039 116.741 65.3267C116.501 65.4495 116.236 65.506 115.971 65.4908Z" fill="black"/>
<path opacity="0.1" d="M120.598 61.6687C119.85 61.59 118.943 61.3146 118.458 61.9273C118.343 62.0968 118.257 62.2872 118.206 62.4893C118.158 62.6355 118.116 62.7872 118.079 62.939C118.58 62.5174 119.391 62.7423 120.071 62.8153C120.694 62.8696 121.318 62.7461 121.881 62.4577C122.445 62.1693 122.925 61.7262 123.275 61.1741C123.435 60.9012 123.554 60.6035 123.628 60.2916C123.267 60.7681 122.802 61.1427 122.274 61.3828C121.746 61.6229 121.17 61.7211 120.598 61.6687Z" fill="black"/>
</g>
<path d="M133.177 105.977L141.213 116.286L140.164 126.69L130.452 110.474L133.177 105.977Z" fill="#DCE6F2"/>
<path opacity="0.1" d="M141.208 116.286L140.222 126.071L140.159 126.69L131.396 112.053L130.452 110.474L130.726 110.018L133.172 105.977L133.714 106.674L141.208 116.286Z" fill="black"/>
<path d="M145.381 92.0208C142.662 92.8526 140.064 95.708 137.804 99.176C136.276 101.569 134.909 104.074 133.714 106.674C132.971 108.259 132.318 109.782 131.775 111.109L131.396 112.053C130.479 114.363 129.968 115.909 129.968 115.909C129.968 115.909 109.152 99.2153 112.446 98.0912C113.552 97.7146 115.007 95.1853 116.445 91.9983L116.625 91.5936C117.536 89.5476 118.432 87.2656 119.228 85.1185C120.856 80.7062 122.063 76.8728 122.063 76.8728C122.063 76.8728 153.681 89.4914 145.381 92.0208Z" fill="#EFB7B9"/>
<path d="M157.834 75.9342C157.834 75.9342 162.64 85.2084 169.095 83.9438C175.551 82.6791 172.895 78.9638 172.895 78.9638L157.834 75.9342Z" fill="#444053"/>
<path d="M148.522 396.963C144.264 399.037 134.637 396.963 134.637 396.963L130.579 396.694C125.309 396.334 116.488 395.727 113.368 395.457C108.815 395.058 109.932 393.068 109.932 393.068V381.045L132.023 375.076C132.023 375.076 140.755 378.263 143.147 381.045C145.418 383.698 146.746 381.658 150.799 382.422C150.999 382.462 151.21 382.507 151.431 382.563C155.278 383.502 157.365 383.873 158.598 387.273C158.846 387.988 159.045 388.72 159.193 389.465C160.332 394.94 152.775 394.901 148.522 396.963Z" fill="#A36468"/>
<path opacity="0.1" d="M158.598 387.273C157.806 387.801 156.974 388.256 156.111 388.633C153.212 390.044 150.456 391.764 147.526 393.096C144.596 394.428 141.44 395.378 138.267 395.125C136.607 394.996 134.911 394.563 133.324 395.069C132.343 395.473 131.419 396.02 130.579 396.694C125.309 396.334 116.488 395.727 113.368 395.457C108.815 395.058 109.932 393.068 109.932 393.068V391.663C110.095 391.663 110.28 391.612 110.491 391.596C111.581 391.577 112.667 391.75 113.705 392.107C115.992 392.77 118.269 393.422 120.556 394.074C120.744 393.317 121.075 392.609 121.528 391.992C121.98 391.376 122.546 390.864 123.191 390.488C124.496 389.749 125.961 389.39 127.438 389.448C130.985 389.499 134.341 391.292 137.883 391.472C138.873 391.569 139.869 391.391 140.776 390.955C141.261 390.696 141.687 390.32 142.162 390.033C142.921 389.641 143.723 389.352 144.549 389.173C146.871 388.556 149.151 387.771 151.373 386.824C152.006 386.559 152.743 386.082 152.659 385.362C152.548 384.407 151.141 384.294 150.772 383.417C150.707 383.259 150.677 383.087 150.685 382.915C150.692 382.742 150.736 382.574 150.815 382.422C151.015 382.462 151.226 382.507 151.447 382.563C155.278 383.502 157.365 383.873 158.598 387.273Z" fill="black"/>
<path d="M144.022 423.268C139.016 425.708 127.686 423.268 127.686 423.268L122.917 422.971C116.741 422.549 106.338 421.846 102.665 421.515C97.3058 421.043 98.6232 418.704 98.6232 418.704V404.535L124.619 397.509C124.619 397.509 134.895 401.258 137.709 404.535C140.381 407.654 141.925 405.254 146.715 406.153C146.952 406.198 147.2 406.254 147.458 406.316C151.984 407.44 154.44 407.862 155.889 411.864C156.183 412.704 156.417 413.567 156.59 414.444C157.897 420.885 149.028 420.835 144.022 423.268Z" fill="#A36468"/>
<path opacity="0.1" d="M155.879 411.864C154.948 412.484 153.969 413.02 152.954 413.466C149.545 415.124 146.298 417.147 142.852 418.716C139.406 420.284 135.69 421.397 131.954 421.104C130.004 420.953 128.007 420.43 126.158 421.037C124.999 421.518 123.908 422.169 122.917 422.971C116.741 422.549 106.338 421.846 102.665 421.515C97.3058 421.043 98.6232 418.704 98.6232 418.704V417.052C98.8414 417.014 99.0613 416.988 99.2819 416.973C100.566 416.948 101.844 417.151 103.066 417.575L111.123 419.89C111.347 418.997 111.74 418.162 112.278 417.436C112.815 416.711 113.485 416.109 114.248 415.669C115.784 414.796 117.51 414.373 119.249 414.444C123.423 414.506 127.37 416.613 131.538 416.827C132.699 416.94 133.867 416.733 134.932 416.226C135.506 415.917 135.986 415.472 136.565 415.141C137.456 414.675 138.401 414.335 139.374 414.129C142.092 413.398 144.761 412.474 147.363 411.364C148.106 411.049 148.975 410.487 148.875 409.644C148.744 408.52 147.089 408.385 146.652 407.351C146.578 407.164 146.544 406.962 146.553 406.76C146.562 406.557 146.614 406.36 146.704 406.181C146.941 406.226 147.189 406.283 147.447 406.344C151.974 407.424 154.43 407.862 155.879 411.864Z" fill="black"/>
<path d="M132.692 326.035L131.285 361.35C131.285 361.35 129.177 368.562 130.321 370.625C131.464 372.687 133.393 374.745 132.692 375.964C131.991 377.184 123.56 390.37 120.835 385.312C118.111 380.253 115.423 358.332 115.423 358.332L117.937 331.257L132.692 326.035Z" fill="#444053"/>
<path d="M138.794 238.048L142.704 243.624V292.12C142.704 292.12 143.848 305.047 142.704 307.717C141.561 310.387 135.764 315.727 135.764 315.727L130.89 289.028L131.944 260.784L138.794 238.048Z" fill="#444053"/>
<path opacity="0.1" d="M132.692 326.035L131.285 361.35C131.285 361.35 129.177 368.562 130.321 370.625C131.464 372.687 133.393 374.745 132.692 375.964C131.991 377.184 123.56 390.37 120.835 385.312C118.111 380.253 115.423 358.332 115.423 358.332L117.937 331.257L132.692 326.035Z" fill="black"/>
<path opacity="0.1" d="M138.794 238.048L142.704 243.624V292.12C142.704 292.12 143.848 305.047 142.704 307.717C141.561 310.387 135.764 315.727 135.764 315.727L130.89 289.028L131.944 260.784L138.794 238.048Z" fill="black"/>
<path d="M142.704 217.364V243.596L138.315 264.016C138.315 264.016 136.908 313.293 138.136 319.285C139.363 325.276 133.92 330.903 133.92 330.903C133.92 330.903 130.758 331.279 130.758 333.899C130.758 336.518 125.488 344.016 125.488 344.016L125.662 358.63C125.662 358.63 127.949 385.986 124.434 391.23C120.919 396.474 125.662 397.228 125.662 397.228C121.272 412.589 100.194 409.031 98.2912 407.345C96.3888 405.659 98.2912 372.496 98.2912 372.496C98.2912 372.496 103.002 321.91 106.691 319.661C110.38 317.413 106.87 314.603 108.098 311.23C109.326 307.858 106.87 298.679 106.87 298.679C106.87 298.679 105.816 287.808 103.182 282.564C100.547 277.32 100.894 262.892 100.894 262.892C100.894 262.892 93.5168 252.398 91.3246 248.278C89.1324 244.158 87.7201 233.478 88.2471 225.418C88.6055 219.972 91.2877 212.041 92.9899 207.477C93.8067 205.29 94.3969 203.874 94.3969 203.874L94.8975 204.014L123.681 212.052L142.704 217.364Z" fill="#444053"/>
<path opacity="0.1" d="M145.382 92.0208C142.662 92.8526 140.064 95.708 137.804 99.176H137.213C133.9 99.1785 130.644 98.2479 127.776 96.4783C124.907 94.7087 122.528 92.1629 120.877 89.098C120.188 87.828 119.633 86.4801 119.223 85.0791C120.851 80.6669 122.058 76.8335 122.058 76.8335C122.058 76.8335 153.681 89.4914 145.382 92.0208Z" fill="black"/>
<path d="M156.053 77.9689C156.057 81.0443 155.4 84.0799 154.132 86.8417C152.863 89.6036 151.017 92.018 148.736 93.899C146.455 95.78 143.799 97.0774 140.974 97.6913C138.148 98.3051 135.229 98.2191 132.439 97.4397C129.65 96.6604 127.066 95.2085 124.885 93.196C122.705 91.1835 120.987 88.664 119.863 85.8317C118.74 82.9993 118.241 79.9297 118.405 76.8592C118.569 73.7887 119.391 70.7994 120.809 68.1213C121.38 67.0332 122.047 66.0056 122.801 65.0524C124.043 63.4733 125.504 62.1049 127.132 60.9942C129.883 59.1299 133.04 58.0585 136.295 57.8847C139.55 57.7109 142.791 58.4406 145.702 60.0026C148.614 61.5646 151.095 63.9054 152.905 66.7963C154.714 69.6873 155.79 73.0294 156.026 76.4963C156.037 76.9909 156.053 77.4799 156.053 77.9689Z" fill="#EFB7B9"/>
<path opacity="0.1" d="M140.222 126.071L140.159 126.69L131.396 112.076C130.479 114.386 129.968 115.931 129.968 115.931C129.968 115.931 109.152 99.2153 112.446 98.0912C113.552 97.7146 115.007 95.1853 116.445 91.9983L116.625 91.5936C118.153 96.4499 127.032 106.157 130.726 110.047C131.153 110.496 131.506 110.867 131.78 111.137L132.344 111.699L132.639 112.014C133.983 113.492 139.653 120.012 140.222 126.071Z" fill="black"/>
<path d="M146.773 175.658L145.814 208.578L145.645 214.441C145.645 214.441 134.283 213.317 123.681 212.08C115.144 211.085 107.097 210.012 105.859 209.382C104.278 208.59 100.889 207.977 98.2175 207.589C96.1517 207.291 94.5287 207.134 94.5287 207.134C94.5287 207.134 93.9226 207.325 92.9899 207.505C90.9558 207.898 87.3829 208.219 85.3014 206.291C82.6402 203.823 89.6331 194.858 91.3774 192.705L91.7621 192.239L91.1033 185.747L89.3907 168.913C89.3907 168.913 88.3367 159.217 86.7558 154.018C86.3332 152.539 86.0282 151.026 85.8442 149.493C85.2568 144.744 85.5577 139.919 86.7295 135.295C87.2301 133.33 87.5478 131.318 87.678 129.286C87.9415 124.087 102.828 103.993 106.517 102.166C108.177 101.341 109.512 99.9206 110.29 98.153C110.547 97.5972 110.74 97.0103 110.865 96.405C112.446 89.098 116.445 91.9983 116.445 91.9983C117.41 97.7146 132.339 112.846 132.339 112.846L132.634 113.16C134.115 114.779 140.713 122.378 140.244 128.865C140.15 131.279 140.488 133.69 141.239 135.969C144.276 146.168 146.022 156.754 146.43 167.446L146.773 175.658Z" fill="#DCE6F2"/>
<path opacity="0.1" d="M125.62 136.565C125.62 136.565 121.931 146.121 119.165 147.666C116.398 149.212 126.937 150.926 125.62 136.565Z" fill="black"/>
<path opacity="0.1" d="M128.387 154.411C128.387 154.411 119.955 155.535 119.955 157.222C119.955 158.908 128.387 154.411 128.387 154.411Z" fill="black"/>
<path opacity="0.1" d="M137.213 165.372C137.213 165.372 124.961 193.194 121.536 194.037C118.111 194.88 137.213 165.372 137.213 165.372Z" fill="black"/>
<path opacity="0.1" d="M132.107 114.256L121.973 118.955L109.742 99.2491C109.999 98.6933 110.192 98.1063 110.317 97.501C111.898 90.194 115.897 93.0943 115.897 93.0943C116.862 98.8106 131.791 113.942 131.791 113.942L132.107 114.256Z" fill="black"/>
<path d="M132.634 113.132L122.5 117.831L110.269 98.1249C110.526 97.5691 110.719 96.9822 110.844 96.3769C112.425 89.0699 116.424 91.9702 116.424 91.9702C117.389 97.6865 132.318 112.818 132.318 112.818L132.634 113.132Z" fill="#DCE6F2"/>
<path opacity="0.1" d="M145.645 214.441C145.645 214.441 134.283 213.317 123.681 212.08L142.704 217.392V223.574C141.872 224.378 141.15 224.794 140.681 224.581C138.489 223.597 120.598 220.506 120.598 220.506C120.598 220.506 110.206 214.885 98.9921 208.14C98.7199 207.979 98.456 207.803 98.2016 207.612C96.8941 206.665 95.7674 205.461 94.8817 204.065C92.8107 200.867 91.7989 196.758 91.3615 192.728C91.1156 190.418 91.0241 188.093 91.0875 185.769C91.1418 183.135 91.3672 180.507 91.762 177.906C90.6775 167.83 90.1496 157.695 90.1811 147.554C90.3129 131.816 104.146 126.195 104.146 126.195C129.572 123.806 121.689 167.648 121.689 167.648C121.689 167.648 120.219 180.014 119.818 181.278C119.418 182.543 117.979 184.651 118.174 187.602C118.369 190.553 123.228 194.082 123.228 194.082C123.228 194.082 127.97 196.454 129.925 199.967C131.348 202.558 140.591 206.071 145.814 208.578L145.645 214.441Z" fill="black"/>
<path opacity="0.1" d="M154.161 65.4908C154.171 66.4166 153.991 67.3335 153.634 68.1776C153.364 68.8663 153.05 69.5348 152.696 70.1785C152.141 71.3627 151.354 72.4056 150.388 73.2362C149.17 74.1637 147.632 74.4222 146.172 74.7988C144.712 75.1754 143.195 75.7768 142.362 77.1033C141.911 77.956 141.609 78.8893 141.471 79.8575C141.332 80.8248 140.97 81.7401 140.417 82.5217C140.13 82.9033 139.732 83.1722 139.285 83.2862C138.839 83.4001 138.37 83.3526 137.951 83.1512C137.51 82.8343 137.176 82.3754 136.997 81.8416C136.397 80.3971 136.244 78.7951 136.001 77.2382C135.759 75.6813 135.416 74.0793 134.521 72.8259C133.625 71.5725 132.039 70.7462 130.632 71.2352C130.161 71.4286 129.731 71.7215 129.369 72.0962C129.007 72.471 128.719 72.9199 128.524 73.4161C128.134 74.4094 127.867 75.4523 127.728 76.5187C127.074 80.3334 126.303 84.1255 125.415 87.8952C125.387 88.0497 125.328 88.1957 125.241 88.3223C125.101 88.4713 124.911 88.556 124.714 88.5584C123.533 88.727 122.4 87.8446 121.209 87.9401C121.087 87.9488 120.965 87.9695 120.846 88.0019C118.92 84.4326 118.07 80.3181 118.41 76.216C118.75 72.1139 120.265 68.2226 122.748 65.0693L122.843 65.0412C123.635 64.7412 124.355 64.2574 124.951 63.6247C125.711 62.8128 126.416 61.943 127.059 61.0223L127.48 60.4603C128.692 58.9038 130.071 57.5058 131.591 56.2953C132.005 55.9329 132.481 55.6582 132.992 55.4859C133.43 55.395 133.878 55.3798 134.32 55.4409C136.14 55.6739 137.975 55.7473 139.806 55.6601C141.082 55.4462 142.368 55.3074 143.658 55.2442C146.994 55.3454 149.84 57.8579 151.948 60.612C153.081 62.0228 154.092 63.6472 154.161 65.4908Z" fill="black"/>
<path d="M118.348 68.6553C117.615 69.9368 116.293 70.8081 115.797 72.2132C115.07 74.2536 116.298 76.7941 115.17 78.6153C114.796 79.2279 114.179 79.6832 113.969 80.3858C113.61 81.5718 114.59 82.8365 114.338 84.0562C114.085 85.2759 112.577 86.3045 112.978 87.4961C113.215 88.0157 113.63 88.4183 114.137 88.6202C114.936 89.1088 115.855 89.3264 116.772 89.2441C118.211 88.9912 119.281 87.4848 120.74 87.3724C121.926 87.2825 123.059 88.1593 124.239 87.9963C124.437 87.989 124.625 87.9027 124.766 87.7546C124.856 87.6293 124.916 87.4828 124.94 87.3274C125.826 83.5615 126.598 79.7694 127.259 75.951C127.393 74.8843 127.659 73.8411 128.049 72.8484C128.246 72.3532 128.535 71.9051 128.897 71.5306C129.259 71.156 129.687 70.8626 130.157 70.6675C131.564 70.1841 133.145 71.0048 134.046 72.2582C134.947 73.5116 135.29 75.1135 135.532 76.6705C135.775 78.2274 135.928 79.8294 136.523 81.2739C136.704 81.8096 137.04 82.2702 137.482 82.5891C138.273 83.0781 139.337 82.6903 139.943 81.9596C140.498 81.1777 140.861 80.2597 140.997 79.2898C141.135 78.3234 141.436 77.3919 141.888 76.5412C142.72 75.2147 144.243 74.6133 145.698 74.2367C147.152 73.8601 148.686 73.5959 149.913 72.6685C150.878 71.8388 151.665 70.798 152.222 69.6164C153.001 68.1663 153.729 66.5925 153.665 64.9231C153.597 63.102 152.585 61.4776 151.505 60.0612C149.397 57.307 146.546 54.7945 143.21 54.699C141.92 54.7565 140.633 54.8954 139.358 55.1149C137.527 55.2027 135.692 55.1275 133.872 54.8901C133.43 54.8336 132.982 54.8507 132.544 54.9407C132.033 55.1074 131.558 55.3827 131.148 55.7501C129.627 56.9585 128.246 58.3547 127.032 59.9094C126.25 61.0158 125.402 62.0672 124.492 63.057C123.896 63.6907 123.177 64.1763 122.384 64.4791C121.857 64.6365 121.33 64.524 120.83 64.6983C119.275 65.221 119.07 67.385 118.348 68.6553Z" fill="#965D7B"/>
<path opacity="0.1" d="M169.095 83.9382C164.879 84.7644 161.386 81.1278 159.452 78.4748C158.858 77.6691 158.317 76.8201 157.834 75.9342L172.305 78.8457L172.889 78.9638C172.889 78.9638 175.551 82.6791 169.095 83.9382Z" fill="black"/>
<g opacity="0.1">
<path opacity="0.1" d="M114.338 82.4486C114.396 81.7135 114.292 80.974 114.032 80.2903C114.032 80.3465 113.984 80.4027 113.969 80.4589C113.742 81.2121 114.048 81.9934 114.243 82.7746C114.285 82.6697 114.316 82.5604 114.338 82.4486Z" fill="black"/>
<path opacity="0.1" d="M115.592 73.2475C115.538 74.0247 115.552 74.8056 115.634 75.5801C115.688 74.8028 115.674 74.0219 115.592 73.2475Z" fill="black"/>
<path opacity="0.1" d="M152.19 67.9921C151.635 69.1762 150.848 70.2191 149.882 71.0497C148.665 71.9772 147.131 72.2357 145.666 72.6123C144.201 72.9889 142.689 73.5903 141.856 74.9168C141.406 75.7699 141.104 76.7031 140.965 77.671C140.828 78.6407 140.466 79.5585 139.912 80.3409C139.306 81.0716 138.241 81.465 137.451 80.9704C137.008 80.6514 136.672 80.1909 136.491 79.6551C135.896 78.2106 135.738 76.6143 135.501 75.0517C135.264 73.4892 134.911 71.8929 134.015 70.6394C133.119 69.386 131.533 68.5598 130.126 69.0488C129.655 69.243 129.226 69.5361 128.864 69.9108C128.502 70.2854 128.214 70.7339 128.018 71.2296C127.628 72.2223 127.362 73.2655 127.227 74.3323C126.57 78.1506 125.797 81.9428 124.909 85.7087C124.884 85.864 124.824 86.0106 124.735 86.1358C124.594 86.284 124.406 86.3702 124.208 86.3775C123.027 86.5405 121.894 85.6637 120.709 85.7536C119.249 85.8661 118.179 87.3724 116.741 87.6197C115.823 87.7075 114.902 87.4895 114.106 86.9958C113.739 86.8277 113.411 86.5787 113.141 86.2651C113.018 86.4535 112.936 86.6692 112.903 86.896C112.869 87.1229 112.884 87.355 112.946 87.5748C113.178 88.0981 113.595 88.5022 114.106 88.6989C114.902 89.1926 115.823 89.4106 116.741 89.3228C118.179 89.0755 119.249 87.5691 120.709 87.4567C121.894 87.3668 123.027 88.2436 124.208 88.0806C124.406 88.0733 124.594 87.987 124.735 87.8389C124.824 87.7137 124.884 87.5671 124.909 87.4118C125.794 83.6646 126.567 79.8725 127.227 76.0354C127.362 74.9686 127.628 73.9254 128.018 72.9327C128.214 72.437 128.502 71.9885 128.864 71.6139C129.226 71.2392 129.655 70.9461 130.126 70.7518C131.533 70.2628 133.114 71.0891 134.015 72.3425C134.916 73.5959 135.258 75.1979 135.501 76.7548C135.743 78.3118 135.896 79.9137 136.491 81.3582C136.672 81.894 137.008 82.3545 137.451 82.6735C138.241 83.1625 139.306 82.7746 139.912 82.0439C140.466 81.2616 140.828 80.3438 140.965 79.3741C141.104 78.4062 141.406 77.473 141.856 76.6199C142.689 75.2934 144.212 74.6976 145.666 74.3154C147.121 73.9332 148.654 73.6803 149.882 72.7528C150.848 71.9222 151.635 70.8793 152.19 69.6951C152.97 68.2506 153.697 66.6768 153.634 65.0074C153.624 64.7928 153.602 64.5789 153.571 64.3667C153.316 65.6531 152.849 66.8809 152.19 67.9921Z" fill="black"/>
</g>
<path opacity="0.1" d="M153.655 68.1607C155.006 70.7235 155.807 73.5744 156 76.5075C151.305 73.6971 146.889 70.6113 144.66 69.5378C140.776 67.6661 126.252 67.9471 120.793 68.1213C121.364 67.0332 122.031 66.0056 122.785 65.0524C124.032 63.472 125.498 62.1036 127.132 60.9942C129.296 59.5294 131.718 58.5506 134.248 58.1178C136.779 57.685 139.366 57.8071 141.851 58.4768C144.336 59.1465 146.666 60.3497 148.701 62.0128C150.735 63.6759 152.429 65.764 153.681 68.1494L153.655 68.1607Z" fill="black"/>
<path opacity="0.1" d="M170.413 81.555C167.878 82.3868 163.741 80.7793 159.452 78.4748C158.858 77.6691 158.317 76.8202 157.834 75.9342L172.305 78.8458C173.264 79.5427 173.506 80.5376 170.413 81.555Z" fill="black"/>
<path d="M138.336 48.6735C138.336 48.6735 124.503 47.8304 120.614 55.84L119.987 62.939L118.933 62.8154L118.722 67.6436C118.722 67.6436 139.864 66.6599 144.675 68.9757C149.487 71.2914 164.437 82.9601 170.428 80.9929C176.42 79.0256 169.902 77.1989 169.902 77.1989C169.902 77.1989 161.654 73.4723 161.654 70.5495C161.654 67.6267 159.61 52.1865 138.336 48.6735Z" fill="#444053"/>
<path opacity="0.1" d="M111.655 311.837C111.655 311.837 120.482 320.971 124.303 320.268C124.303 320.268 113.5 319.285 111.655 311.837Z" fill="black"/>
<path opacity="0.1" d="M109.811 316.07C109.811 316.07 110.601 320.768 112.709 320.308C114.817 319.847 109.811 316.07 109.811 316.07Z" fill="black"/>
<path opacity="0.1" d="M123.644 394.603C123.644 394.603 111.112 405.001 113.226 405.282C115.339 405.563 123.644 394.603 123.644 394.603Z" fill="black"/>
<path d="M140.407 188.226L180.984 181.183V222.158L142.43 220.005L140.407 188.226Z" fill="#007BFF"/>
<path opacity="0.05" d="M140.407 188.226L180.984 181.183V222.158L142.43 220.005L140.407 188.226Z" fill="black"/>
<path d="M180.984 181.183L229.644 185.067L226.952 220.725L180.984 222.158V181.183Z" fill="#007BFF"/>
<path opacity="0.1" d="M180.984 181.183L229.644 185.067L226.952 220.725L180.984 222.158V181.183Z" fill="black"/>
<path d="M195.945 168.677L180.984 181.183L229.644 185.067L237.596 172.268L195.945 168.677Z" fill="#007BFF"/>
<path d="M125.715 174.567L162.245 169.823L180.984 181.183L140.407 188.226L125.715 174.567Z" fill="#007BFF"/>
<path d="M189.879 191.823V247.845L170.871 245.765L162.603 244.866L160.084 244.585L151.821 243.68L140.407 242.432V188.226L180.979 191.171L189.879 191.823Z" fill="#007BFF"/>
<path d="M229.644 185.067V239.7L214.41 242.82L207 244.338L189.879 247.845V191.823L229.644 185.067Z" fill="#007BFF"/>
<path opacity="0.05" d="M229.644 185.067V239.7L214.41 242.82L207 244.338L189.879 247.845V191.823L229.644 185.067Z" fill="black"/>
<path d="M125.715 200.018L140.407 188.226L189.879 191.823L182.596 204.908L125.715 200.018Z" fill="#007BFF"/>
<path opacity="0.1" d="M125.715 200.018L140.407 188.226L189.879 191.823L182.596 204.908L125.715 200.018Z" fill="white"/>
<path d="M229.644 185.067L189.879 191.823L202.822 204.189L245.417 196.567L229.644 185.067Z" fill="#007BFF"/>
<path opacity="0.1" d="M229.644 185.067L189.879 191.823L202.822 204.189L245.417 196.567L229.644 185.067Z" fill="white"/>
<path opacity="0.1" d="M214.41 242.82L207 244.338V232.663L213.941 230.797L214.41 242.82Z" fill="white"/>
<path opacity="0.1" d="M170.871 238.042V245.765L162.603 244.866V238.042H170.871Z" fill="white"/>
<path opacity="0.1" d="M160.084 240.476V244.585L151.821 243.68V240.476H160.084Z" fill="white"/>
<path opacity="0.1" d="M184.904 233.945C179.24 241.673 160.532 236.334 160.532 236.334L146.63 220.865L144.744 218.769L148.433 211.462C148.433 211.462 149.487 211.833 151.247 212.485C160.564 215.958 189.674 227.442 184.904 233.945Z" fill="black"/>
<path d="M184.378 232.821C178.713 240.549 160.005 235.209 160.005 235.209L146.103 219.741L144.217 217.645L147.906 210.338C147.906 210.338 148.96 210.709 150.72 211.361C160.037 214.834 189.147 226.317 184.378 232.821Z" fill="#EFB7B9"/>
<path opacity="0.1" d="M150.699 211.361C149.929 213.721 147.974 217.217 146.082 219.741L144.196 217.645L147.885 210.338C147.885 210.338 148.944 210.709 150.699 211.361Z" fill="black"/>
<path d="M104.673 123.947C104.673 123.947 90.8398 129.567 90.7081 145.306C90.6766 155.447 91.2045 165.582 92.289 175.658C92.289 175.658 88.3367 199.124 99.5349 205.869C110.733 212.614 121.141 218.235 121.141 218.235C121.141 218.235 139.031 221.326 141.229 222.31C143.426 223.293 151.062 210.647 149.877 208.539C148.691 206.431 132.402 201.232 130.468 197.719C128.534 194.206 123.77 191.84 123.77 191.84C123.77 191.84 118.912 188.304 118.717 185.353C118.522 182.402 119.955 180.295 120.361 179.03C120.767 177.765 122.237 165.4 122.237 165.4C122.237 165.4 130.099 121.53 104.673 123.947Z" fill="#DCE6F2"/>
<path opacity="0.1" d="M110.997 176.051C110.997 176.051 92.289 178.299 93.7382 185.325C93.7382 185.325 100.847 178.237 110.997 176.051Z" fill="black"/>
<path opacity="0.1" d="M110.997 178.861C110.997 178.861 100.378 187.152 102.328 187.714C104.278 188.276 110.997 178.861 110.997 178.861Z" fill="black"/>
<path opacity="0.1" d="M115.739 182.234C115.739 182.234 112.709 188.046 114.422 187.742C116.134 187.439 115.739 182.234 115.739 182.234Z" fill="black"/>
<path d="M310.519 56.1716C310.519 56.1716 290.494 54.8845 292.834 69.8694C292.834 69.8694 292.365 72.5168 294.615 73.7196C294.615 73.7196 294.652 72.5955 296.67 72.9833C297.389 73.1123 298.119 73.15 298.847 73.0957C299.832 73.0256 300.768 72.613 301.513 71.921C301.513 71.921 307.146 69.4422 309.339 59.6171C309.339 59.6171 310.962 57.47 310.919 56.9192L307.536 58.4649C307.536 58.4649 308.69 61.0673 307.779 63.2313C307.779 63.2313 307.673 58.5604 307.02 58.6672C306.888 58.6672 305.265 59.5722 305.265 59.5722C305.265 59.5722 307.252 64.1025 305.75 67.4019C305.75 67.4019 306.319 61.8149 304.643 59.8982L302.261 61.3821C302.261 61.3821 304.585 66.0641 303.01 69.8863C303.01 69.8863 303.415 64.0238 301.761 61.7418L299.6 63.5348C299.6 63.5348 301.787 68.1551 300.454 71.3252C300.454 71.3252 300.28 64.5016 299.131 63.9845C299.131 63.9845 297.245 65.7606 296.96 66.4913C296.96 66.4913 298.451 69.8638 297.524 71.6118C297.524 71.6118 296.955 67.0646 296.47 67.0421C296.47 67.0421 294.589 70.0549 294.394 72.1008C294.485 70.1934 295.042 68.3447 296.011 66.7386C294.927 66.9574 293.927 67.5105 293.134 68.3293C293.134 68.3293 293.424 66.199 296.475 66.0135C296.475 66.0135 298.056 63.7259 298.446 63.5854C298.446 63.5854 295.411 63.3156 293.572 64.1868C293.572 64.1868 295.189 62.1802 299.005 63.0627L301.113 61.2078C301.113 61.2078 297.118 60.6457 295.421 61.2696C295.421 61.2696 297.371 59.4935 301.687 60.7863L304.006 59.308C304.006 59.308 300.601 58.5211 298.573 58.8078C298.573 58.8078 300.712 57.5768 304.685 58.9089L306.345 58.1164C306.345 58.1164 303.847 57.5937 303.12 57.5094C302.393 57.425 302.351 57.2115 302.351 57.2115C303.931 56.9309 305.553 57.1256 307.036 57.7735C307.036 57.7735 310.593 56.4077 310.519 56.1716Z" fill="#007BFF"/>
<path opacity="0.1" d="M371.363 131.119C371.363 131.119 351.338 129.832 353.678 144.816C353.678 144.816 353.209 147.464 355.459 148.667C355.459 148.667 355.496 147.543 357.52 147.93C358.238 148.059 358.969 148.097 359.696 148.043C360.67 147.967 361.594 147.557 362.331 146.874C362.331 146.874 367.969 144.389 370.162 134.564C370.162 134.564 371.779 132.423 371.716 131.872L368.333 133.412C368.333 133.412 369.487 136.014 368.581 138.178C368.581 138.178 368.47 133.508 367.822 133.614C367.69 133.614 366.062 134.519 366.062 134.519C366.062 134.519 368.054 139.055 366.552 142.349C366.552 142.349 367.121 136.762 365.44 134.845L363.084 136.312C363.084 136.312 365.408 140.994 363.833 144.816C363.833 144.816 364.239 138.954 362.584 136.672L360.429 138.471C360.429 138.471 362.61 143.085 361.282 146.255C361.282 146.255 361.108 139.432 359.96 138.915C359.96 138.915 358.073 140.691 357.783 141.422C357.783 141.422 359.28 144.794 358.352 146.542C358.352 146.542 357.783 141.995 357.298 141.972C357.298 141.972 355.417 144.985 355.222 147.031C355.316 145.123 355.876 143.275 356.845 141.669C355.759 141.888 354.758 142.441 353.963 143.26C353.963 143.26 354.258 141.129 357.309 140.944C357.309 140.944 358.863 138.656 359.28 138.516C359.28 138.516 356.244 138.246 354.405 139.117C354.405 139.117 356.023 137.11 359.833 138.021L361.941 136.166C361.941 136.166 357.941 135.604 356.25 136.228C356.25 136.228 358.199 134.452 362.515 135.745L364.834 134.266C364.834 134.266 361.424 133.485 359.396 133.766C359.396 133.766 361.54 132.535 365.514 133.867L367.174 133.075C367.174 133.075 364.676 132.552 363.943 132.468C363.211 132.383 363.174 132.17 363.174 132.17C364.756 131.889 366.38 132.084 367.864 132.732C367.864 132.732 371.426 131.355 371.363 131.119Z" fill="#007BFF"/>
<path opacity="0.1" d="M249.712 117.814C249.712 117.814 254.323 96.967 240.073 96.894C240.073 96.894 237.707 95.9497 236.216 98.1081C236.216 98.1081 237.233 98.3385 236.543 100.396C236.304 101.123 236.145 101.878 236.068 102.644C235.966 103.689 236.186 104.741 236.695 105.64C236.695 105.64 238.029 111.991 246.708 115.971C246.708 115.971 248.415 118.039 248.932 118.062L248.089 114.245C248.089 114.245 245.485 115.015 243.641 113.683C243.641 113.683 247.978 114.363 247.983 113.683C247.983 113.543 247.456 111.682 247.456 111.682C247.456 111.682 242.929 112.997 240.136 110.856C240.136 110.856 245.201 112.407 247.261 110.974L246.313 108.209C246.313 108.209 241.57 109.855 238.324 107.545C238.324 107.545 243.672 108.973 246.065 107.624L244.774 105.05C244.774 105.05 240.136 106.556 237.433 104.617C237.433 104.617 243.757 105.595 244.442 104.482C244.442 104.482 243.124 102.194 242.497 101.767C242.497 101.767 239.146 102.768 237.67 101.492C237.67 101.492 241.965 101.666 242.065 101.183C242.065 101.183 239.604 98.6926 237.728 98.1305C239.476 98.5551 241.091 99.4578 242.413 100.75C242.394 99.5718 242.053 98.4253 241.433 97.4504C241.433 97.4504 243.351 98.1249 243.014 101.385C243.014 101.385 244.858 103.408 244.916 103.869C244.916 103.869 245.68 100.727 245.19 98.642C245.19 98.642 246.771 100.688 245.28 104.538L246.629 107.096C246.629 107.096 247.851 102.992 247.54 101.104C247.54 101.104 248.853 103.453 246.919 107.77L247.894 110.462C247.894 110.462 249.195 107.011 249.279 104.842C249.279 104.842 250.054 107.304 248.141 111.255L248.594 113.132C248.594 113.132 249.501 110.597 249.701 109.844C249.901 109.091 250.107 109.085 250.107 109.085C250.099 110.795 249.644 112.469 248.795 113.919C248.795 113.919 249.485 117.843 249.712 117.814Z" fill="#007BFF"/>
<path opacity="0.1" d="M205.857 124.919C205.857 124.919 189.774 112.087 184.024 125.987C184.024 125.987 182.27 127.926 183.529 130.248C183.529 130.248 184.13 129.343 185.637 130.843C186.171 131.373 186.762 131.833 187.397 132.215C188.258 132.726 189.251 132.923 190.227 132.777C190.227 132.777 196.213 134.008 203.106 127.089C203.106 127.089 205.567 126.246 205.799 125.751L202.168 125.071C202.168 125.071 201.789 127.921 199.918 129.196C199.918 129.196 202.231 125.228 201.631 124.942C201.509 124.88 199.697 124.66 199.697 124.66C199.697 124.66 199.022 129.618 196.071 131.49C196.071 131.49 199.428 127.156 199.012 124.571L196.255 124.413C196.255 124.413 195.786 129.691 192.498 131.962C192.498 131.962 195.855 127.302 195.66 124.424L192.93 124.66C192.93 124.66 192.377 129.792 189.631 131.658C189.631 131.658 192.999 125.858 192.308 124.756C192.308 124.756 189.816 125.133 189.199 125.571C189.199 125.571 188.72 129.247 187.033 130.18C187.033 130.18 188.904 126.049 188.525 125.762C188.525 125.762 185.4 127.173 184.172 128.781C185.234 127.241 186.655 126.025 188.293 125.251C187.274 124.799 186.153 124.674 185.068 124.891C185.068 124.891 186.406 123.283 189.052 124.919C189.052 124.919 191.528 123.924 191.95 124.048C191.95 124.048 189.552 122.041 187.566 121.693C187.566 121.693 189.958 120.962 192.672 123.941L195.407 123.643C195.407 123.643 192.366 120.833 190.622 120.361C190.622 120.361 193.167 120.018 196.103 123.626L198.801 123.756C198.801 123.756 196.361 121.103 194.522 120.147C194.522 120.147 196.94 120.372 199.575 123.817L201.372 124.127C201.372 124.127 199.554 122.227 198.985 121.732C198.416 121.237 198.495 121.029 198.495 121.029C199.961 121.722 201.218 122.835 202.126 124.245C202.126 124.245 205.788 125.15 205.857 124.919Z" fill="#007BFF"/>
<path opacity="0.1" d="M259.403 5.69729C259.403 5.69729 243.319 -7.14051 237.57 6.76523C237.57 6.76523 235.815 8.70439 237.075 11.0258C237.075 11.0258 237.676 10.1208 239.183 11.6216C239.719 12.1485 240.312 12.6069 240.948 12.9874C241.809 13.499 242.802 13.6963 243.778 13.5495C243.778 13.5495 249.764 14.7804 256.657 7.85565C256.657 7.85565 259.118 7.01816 259.345 6.51792L255.714 5.84904C255.714 5.84904 255.34 8.69877 253.464 9.97468C253.464 9.97468 255.782 6.00643 255.182 5.71977C255.06 5.65794 253.248 5.43873 253.248 5.43873C253.248 5.43873 252.552 10.4075 249.601 12.2679C249.601 12.2679 252.952 7.93434 252.541 5.3488L249.785 5.19142C249.785 5.19142 249.311 10.4693 246.028 12.7345C246.028 12.7345 249.385 8.07486 249.19 5.19704L246.465 5.43311C246.465 5.43311 245.907 10.5705 243.161 12.4366C243.161 12.4366 246.534 6.63595 245.844 5.53428C245.844 5.53428 243.351 5.91087 242.734 6.34929C242.734 6.34929 242.255 10.0253 240.569 10.9583C240.569 10.9583 242.439 6.82706 242.06 6.53478C242.06 6.53478 238.935 7.9512 237.707 9.55874C238.768 8.01793 240.189 6.80081 241.828 6.02891C240.808 5.57366 239.684 5.44856 238.598 5.66918C238.598 5.66918 239.942 4.06165 242.587 5.69729C242.587 5.69729 245.064 4.69679 245.485 4.82607C245.485 4.82607 243.088 2.81946 241.101 2.46535C241.101 2.46535 243.488 1.74028 246.202 4.71365L248.937 4.41575C248.937 4.41575 245.902 1.60538 244.152 1.12761C244.152 1.12761 246.697 0.790368 249.638 4.39889L252.336 4.52255C252.336 4.52255 249.896 1.86956 248.052 0.919648C248.052 0.919648 250.476 1.14448 253.111 4.59L254.902 4.89914C254.902 4.89914 253.079 3.02181 252.51 2.53842C251.941 2.05504 252.02 1.84145 252.02 1.84145C253.486 2.53313 254.743 3.64632 255.651 5.05652C255.651 5.05652 259.313 5.91087 259.403 5.69729Z" fill="#007BFF"/>
<path opacity="0.1" d="M320.858 21.9581C320.858 21.9581 314.429 1.66157 302.303 9.63742C302.303 9.63742 299.827 10.1995 299.632 12.8469C299.632 12.8469 300.607 12.4647 301.039 14.6005C301.199 15.3603 301.442 16.0978 301.761 16.7983C302.196 17.741 302.906 18.508 303.784 18.9847C303.784 18.9847 308.063 23.6218 317.422 22.0874C317.422 22.0874 319.894 22.8855 320.347 22.6101L317.712 19.8503C317.712 19.8503 315.889 21.9693 313.665 21.885C313.665 21.885 317.686 20.0189 317.354 19.4175C317.285 19.2995 315.91 18.0236 315.91 18.0236C315.91 18.0236 312.716 21.6939 309.291 21.4522C309.291 21.4522 314.355 19.9122 315.388 17.5177L313.207 15.7247C313.207 15.7247 310.013 19.7829 306.098 19.6592C306.098 19.6592 311.367 17.855 312.701 15.3593L310.329 13.9036C310.329 13.9036 307.167 17.7987 303.89 17.6751C303.89 17.6751 309.75 14.9378 309.765 13.6113C309.765 13.6113 307.515 12.4141 306.772 12.4028C306.772 12.4028 304.422 15.1401 302.556 14.8928C302.556 14.8928 306.287 12.6164 306.129 12.1499C306.129 12.1499 302.809 11.4248 300.939 12.0094C302.631 11.381 304.447 11.2357 306.208 11.5878C305.607 10.598 304.748 9.81667 303.737 9.33952C303.737 9.33952 305.697 8.82803 307.009 11.7733C307.009 11.7733 309.581 12.4534 309.855 12.8075C309.855 12.8075 308.949 9.71049 307.499 8.21537C307.499 8.21537 309.855 9.0641 310.498 13.1729L312.911 14.5781C312.911 14.5781 311.915 10.4131 310.714 8.95731C310.714 8.95731 312.996 10.2164 313.491 14.9659L315.652 16.7027C315.652 16.7027 315.051 13.038 314.039 11.1382C314.039 11.1382 315.915 12.7907 316.252 17.2254L317.565 18.5632C317.565 18.5632 317.08 15.8989 316.88 15.1458C316.679 14.3926 316.843 14.342 316.843 14.342C317.68 15.8001 318.124 17.477 318.123 19.1871C318.123 19.1871 320.674 22.1042 320.858 21.9581Z" fill="#007BFF"/>
<path opacity="0.1" d="M278.901 22.9586C278.901 22.9586 258.928 20.5866 260.578 35.7009C260.578 35.7009 259.982 38.3201 262.159 39.6354C262.159 39.6354 262.248 38.5112 264.267 39.0171C264.98 39.1808 265.708 39.2581 266.438 39.2475C267.423 39.2286 268.376 38.8675 269.152 38.2189C269.152 38.2189 274.901 36.0437 277.583 26.3479C277.583 26.3479 279.301 24.2963 279.264 23.7399L275.813 25.1001C275.813 25.1001 276.867 27.7587 275.813 29.8721C275.813 29.8721 275.923 25.2013 275.286 25.2744C275.154 25.2744 273.489 26.0837 273.489 26.0837C273.489 26.0837 275.259 30.7209 273.605 33.9528C273.605 33.9528 274.437 28.3995 272.851 26.3985L270.401 27.7475C270.401 27.7475 272.508 32.5532 270.743 36.2854C270.743 36.2854 271.428 30.4511 269.884 28.0847L267.644 29.771C267.644 29.771 269.605 34.498 268.124 37.595C268.124 37.595 268.277 30.7714 267.154 30.1925C267.154 30.1925 265.183 31.8787 264.862 32.5757C264.862 32.5757 266.195 36.0044 265.189 37.7187C265.189 37.7187 264.836 33.149 264.372 33.1041C264.372 33.1041 262.348 36.01 262.053 38.0616C262.236 36.1595 262.883 34.3417 263.929 32.7893C262.836 32.9505 261.81 33.4486 260.978 34.2226C260.978 34.2226 261.368 32.1148 264.425 32.0923C264.425 32.0923 266.085 29.8946 266.533 29.7766C266.533 29.7766 263.513 29.3438 261.632 30.1138C261.632 30.1138 263.344 28.1915 267.107 29.3101L269.326 27.5732C269.326 27.5732 265.315 26.7076 263.618 27.2697C263.618 27.2697 265.653 25.5835 269.9 27.1292L272.287 25.7746C272.287 25.7746 268.92 24.8078 266.88 24.9821C266.88 24.9821 269.078 23.8579 272.983 25.4149L274.68 24.7123C274.68 24.7123 272.208 24.0547 271.481 23.931C270.754 23.8073 270.727 23.5938 270.727 23.5938C272.32 23.3988 273.933 23.679 275.386 24.4031C275.386 24.4031 278.938 23.1947 278.901 22.9586Z" fill="#007BFF"/>
<path opacity="0.1" d="M453.645 188.304C453.645 188.304 433.683 185.932 435.332 201.03C435.332 201.03 434.737 203.649 436.913 204.964C436.913 204.964 437.003 203.84 439.021 204.34C439.734 204.509 440.463 204.587 441.192 204.571C442.178 204.555 443.132 204.193 443.906 203.542C443.906 203.542 449.656 201.367 452.312 191.677C452.312 191.677 454.029 189.619 453.993 189.069L450.541 190.423C450.541 190.423 451.595 193.087 450.541 195.201C450.541 195.201 450.652 190.524 450.014 190.603C449.882 190.603 448.217 191.407 448.217 191.407C448.217 191.407 449.988 196.044 448.333 199.276C448.333 199.276 449.166 193.728 447.579 191.722L445.129 193.076C445.129 193.076 447.237 197.882 445.477 201.614C445.477 201.614 446.156 195.78 444.612 193.408L442.373 195.094C442.373 195.094 444.333 199.821 442.852 202.913C442.852 202.913 443.005 196.089 441.883 195.516C441.883 195.516 439.917 197.202 439.59 197.899C439.59 197.899 440.929 201.328 439.917 203.042C439.917 203.042 439.564 198.472 439.1 198.427C439.1 198.427 437.077 201.333 436.782 203.385C436.964 201.483 437.611 199.665 438.658 198.112C437.563 198.271 436.537 198.769 435.707 199.546C435.707 199.546 436.097 197.432 439.153 197.41C439.153 197.41 440.818 195.212 441.261 195.1C441.261 195.1 438.241 194.661 436.36 195.431C436.36 195.431 438.073 193.515 441.841 194.633L444.054 192.896C444.054 192.896 440.091 192.098 438.368 192.649C438.368 192.649 440.402 190.963 444.649 192.503L447.037 191.154C447.037 191.154 443.669 190.187 441.63 190.361C441.63 190.361 443.827 189.237 447.732 190.794L449.429 190.086C449.429 190.086 446.957 189.428 446.23 189.31C445.503 189.192 445.477 188.973 445.477 188.973C447.069 188.775 448.682 189.053 450.135 189.777C450.135 189.777 453.697 188.546 453.645 188.304Z" fill="#007BFF"/>
<path opacity="0.1" d="M484.162 208.19C484.162 208.19 464.2 205.824 465.849 220.916C465.849 220.916 465.259 223.535 467.43 224.85C467.43 224.85 467.52 223.726 469.538 224.232C470.249 224.397 470.976 224.473 471.704 224.457C472.685 224.436 473.633 224.077 474.407 223.434C474.407 223.434 480.151 221.259 482.807 211.563C482.807 211.563 484.531 209.511 484.488 208.955L481.037 210.309C481.037 210.309 482.091 212.974 481.037 215.087C481.037 215.087 481.147 210.416 480.51 210.489C480.378 210.489 478.713 211.293 478.713 211.293C478.713 211.293 480.483 215.93 478.829 219.162C478.829 219.162 479.661 213.614 478.075 211.614L475.625 212.962C475.625 212.962 477.733 217.768 475.972 221.5C475.972 221.5 476.652 215.666 475.108 213.3L472.869 214.986C472.869 214.986 474.829 219.713 473.353 222.81C473.353 222.81 473.501 215.981 472.379 215.408C472.379 215.408 470.413 217.094 470.086 217.791C470.086 217.791 471.425 221.219 470.413 222.934C470.413 222.934 470.06 218.364 469.596 218.319C469.596 218.319 467.573 221.225 467.283 223.277C467.465 221.375 468.11 219.558 469.153 218.004C468.06 218.165 467.034 218.664 466.202 219.438C466.202 219.438 466.598 217.324 469.654 217.307C469.654 217.307 471.314 215.11 471.762 214.992C471.762 214.992 468.742 214.559 466.861 215.329C466.861 215.329 468.574 213.407 472.342 214.525L474.555 212.788C474.555 212.788 470.592 211.99 468.869 212.541C468.869 212.541 470.903 210.855 475.15 212.4L477.538 211.046C477.538 211.046 474.17 210.079 472.131 210.253C472.131 210.253 474.328 209.129 478.233 210.686L479.93 209.983C479.93 209.983 477.459 209.326 476.737 209.202C476.015 209.079 475.978 208.865 475.978 208.865C477.571 208.67 479.183 208.95 480.636 209.674C480.636 209.674 484.214 208.432 484.162 208.19Z" fill="#007BFF"/>
<path opacity="0.1" d="M416.409 40.6864C416.409 40.6864 400.326 27.8543 394.576 41.7544C394.576 41.7544 392.822 43.6936 394.081 46.0149C394.081 46.0149 394.682 45.11 396.189 46.6107C396.723 47.1404 397.314 47.6008 397.949 47.9822C398.81 48.493 399.803 48.6903 400.779 48.5443C400.779 48.5443 406.765 49.7752 413.663 42.8561C413.663 42.8561 416.119 42.0129 416.351 41.5183L412.731 40.8213C412.731 40.8213 412.351 43.6711 410.48 44.947C410.48 44.947 412.794 40.9787 412.193 40.6921C412.072 40.6302 410.264 40.411 410.264 40.411C410.264 40.411 409.585 45.3685 406.633 47.2402C406.633 47.2402 409.99 42.9066 409.574 40.3211L406.818 40.1637C406.818 40.1637 406.349 45.4416 403.061 47.7124C403.061 47.7124 406.423 43.0528 406.222 40.175L403.493 40.411C403.493 40.411 402.966 45.5428 400.194 47.4089C400.194 47.4089 403.567 41.6083 402.871 40.5066C402.871 40.5066 400.378 40.8832 399.762 41.3216C399.762 41.3216 399.287 44.9976 397.601 45.9306C397.601 45.9306 399.467 41.7994 399.087 41.5127C399.087 41.5127 395.962 42.9235 394.734 44.531C395.797 42.9919 397.217 41.7751 398.855 41.0012C397.836 40.5493 396.715 40.4243 395.63 40.6415C395.63 40.6415 396.974 39.0339 399.619 40.6696C399.619 40.6696 402.091 39.6747 402.513 39.7984C402.513 39.7984 400.115 37.7918 398.128 37.4433C398.128 37.4433 400.521 36.7126 403.235 39.6916L405.969 39.3937C405.969 39.3937 402.934 36.5833 401.185 36.1112C401.185 36.1112 403.73 35.7683 406.665 39.3768L409.368 39.5061C409.368 39.5061 406.923 36.8531 405.084 35.8976C405.084 35.8976 407.508 36.1224 410.138 39.5679L411.935 39.8771C411.935 39.8771 410.117 37.9772 409.548 37.4826C408.978 36.988 409.063 36.825 409.063 36.825C410.527 37.5186 411.782 38.6315 412.688 40.0401C412.688 40.0401 416.34 40.9169 416.409 40.6864Z" fill="#007BFF"/>
<path opacity="0.1" d="M428.835 133.328C428.835 133.328 423.291 112.739 410.823 120.13C410.823 120.13 408.325 120.54 408.014 123.205C408.014 123.205 409.005 122.873 409.347 125.026C409.474 125.799 409.687 126.554 409.98 127.274C410.371 128.243 411.048 129.048 411.908 129.567C411.908 129.567 415.987 134.401 425.399 133.322C425.399 133.322 427.834 134.233 428.297 133.985L425.805 131.096C425.805 131.096 423.892 133.131 421.679 132.94C421.679 132.94 425.768 131.254 425.452 130.652C425.388 130.529 424.071 129.185 424.071 129.185C424.071 129.185 420.73 132.704 417.315 132.293C417.315 132.293 422.443 131.001 423.57 128.674L421.463 126.774C421.463 126.774 418.1 130.675 414.196 130.371C414.196 130.371 419.507 128.814 420.972 126.392L418.664 124.823C418.664 124.823 415.318 128.561 412.072 128.28C412.072 128.28 418.042 125.824 418.116 124.503C418.116 124.503 415.913 123.199 415.17 123.154C415.17 123.154 412.709 125.773 410.839 125.436C410.839 125.436 414.665 123.34 414.528 122.867C414.528 122.867 411.239 121.985 409.347 122.474C411.061 121.932 412.877 121.876 414.617 122.311C414.06 121.294 413.235 120.473 412.246 119.95C412.246 119.95 414.227 119.529 415.408 122.536C415.408 122.536 417.942 123.334 418.206 123.705C418.206 123.705 417.431 120.563 416.045 119.006C416.045 119.006 418.364 119.962 418.833 124.098L421.183 125.622C421.183 125.622 420.361 121.406 419.223 119.922C419.223 119.922 421.447 121.288 421.747 126.054L423.855 127.892C423.855 127.892 423.407 124.205 422.48 122.272C422.48 122.272 424.287 124.014 424.435 128.454L425.689 129.86C425.689 129.86 425.32 127.173 425.162 126.409C425.004 125.644 425.162 125.537 425.162 125.537C425.942 127.032 426.316 128.73 426.242 130.439C426.242 130.439 428.645 133.463 428.835 133.328Z" fill="#007BFF"/>
<path opacity="0.1" d="M305.302 179.721C305.302 179.721 294.536 161.634 284.539 172.459C284.539 172.459 282.252 173.583 282.653 176.253C282.653 176.253 283.522 175.635 284.418 177.602C284.74 178.299 285.14 178.953 285.609 179.547C286.237 180.359 287.098 180.927 288.059 181.166C288.059 181.166 293.25 184.583 301.998 180.716C301.998 180.716 304.575 180.862 304.954 180.486L301.792 178.462C301.792 178.462 300.491 180.992 298.314 181.469C298.314 181.469 301.803 178.659 301.334 178.142C301.244 178.041 299.621 177.153 299.621 177.153C299.621 177.153 297.339 181.526 293.956 182.161C293.956 182.161 298.536 179.378 299.01 176.804L296.486 175.618C296.486 175.618 294.288 180.368 290.462 181.239C290.462 181.239 295.152 178.153 295.917 175.388L293.282 174.578C293.282 174.578 291.058 179.171 287.87 179.873C287.87 179.873 292.95 175.725 292.67 174.432C292.67 174.432 290.215 173.842 289.509 174.022C289.509 174.022 287.838 177.276 285.951 177.512C285.951 177.512 289.071 174.354 288.813 173.938C288.813 173.938 285.425 174.078 283.738 175.118C285.242 174.079 286.976 173.478 288.766 173.376C287.964 172.567 286.959 172.025 285.872 171.819C285.872 171.819 287.659 170.824 289.561 173.353C289.561 173.353 292.196 173.353 292.56 173.634C292.56 173.634 290.979 170.824 289.245 169.773C289.245 169.773 291.722 169.997 293.261 173.825L295.922 174.578C295.922 174.578 294.019 170.784 292.539 169.7C292.539 169.7 295.031 170.34 296.575 174.831L299.063 175.955C299.063 175.955 297.661 172.555 296.254 170.964C296.254 170.964 298.446 172.088 299.758 176.31L301.339 177.282C301.339 177.282 300.285 174.814 299.911 174.134C299.537 173.454 299.684 173.297 299.684 173.297C300.825 174.498 301.629 176.014 302.008 177.675C302.008 177.675 305.16 179.912 305.302 179.721Z" fill="#007BFF"/>
<path d="M376.059 87.305C376.059 87.305 365.819 68.8745 355.507 79.3629C355.507 79.3629 353.188 80.4308 353.515 83.095C353.515 83.095 354.395 82.4992 355.238 84.4946C355.539 85.2039 355.92 85.872 356.371 86.4844C356.976 87.3132 357.821 87.906 358.774 88.1706C358.774 88.1706 363.859 91.7566 372.718 88.1706C372.718 88.1706 375.289 88.401 375.679 88.0357L372.586 85.911C372.586 85.911 371.216 88.3898 369.023 88.8001C369.023 88.8001 372.591 86.0853 372.143 85.5738C372.048 85.467 370.457 84.5227 370.457 84.5227C370.457 84.5227 368.049 88.8226 364.66 89.3453C364.66 89.3453 369.319 86.7148 369.861 84.163L367.374 82.9152C367.374 82.9152 365.04 87.5973 361.187 88.3448C361.187 88.3448 365.967 85.4164 366.81 82.6791L364.207 81.7798C364.207 81.7798 361.846 86.2764 358.642 86.8947C358.642 86.8947 363.838 82.9152 363.596 81.6168C363.596 81.6168 361.161 80.9423 360.434 81.0997C360.434 81.0997 358.668 84.2979 356.777 84.4721C356.777 84.4721 359.986 81.4257 359.743 80.9985C359.743 80.9985 356.35 81.0266 354.637 82.0102C356.171 81.0232 357.921 80.4807 359.712 80.4364C358.933 79.6009 357.942 79.0265 356.861 78.7839C356.861 78.7839 358.679 77.8453 360.55 80.4364C360.55 80.4364 363.185 80.532 363.538 80.8186C363.538 80.8186 362.046 78.0083 360.339 76.8504C360.339 76.8504 362.805 77.1539 364.233 81.0322L366.868 81.8753C366.868 81.8753 365.082 78.0195 363.627 76.8841C363.627 76.8841 366.104 77.6092 367.516 82.1451L369.967 83.3648C369.967 83.3648 368.665 79.9193 367.332 78.3062C367.332 78.3062 369.487 79.5034 370.683 83.7639L372.227 84.7869C372.227 84.7869 371.237 82.2857 370.889 81.5943C370.541 80.9029 370.689 80.7512 370.689 80.7512C371.793 81.9896 372.554 83.5306 372.886 85.2028C372.886 85.2028 375.906 87.4905 376.059 87.305Z" fill="#007BFF"/>
<path d="M311.278 126.06C311.278 126.06 311.805 104.645 297.856 107.663C297.856 107.663 295.358 107.253 294.304 109.692C294.304 109.692 295.358 109.692 295.063 111.856C294.966 112.628 294.956 113.409 295.031 114.183C295.126 115.234 295.543 116.221 296.217 116.994C296.217 116.994 298.731 122.918 308.011 124.93C308.011 124.93 310.071 126.588 310.587 126.498L309.007 122.946C309.007 122.946 306.609 124.261 304.548 123.368C304.548 123.368 308.922 123.092 308.801 122.407C308.801 122.266 307.895 120.557 307.895 120.557C307.895 120.557 303.71 122.834 300.575 121.339C300.575 121.339 305.845 121.76 307.568 119.911L306.098 117.421C306.098 117.421 301.787 120.051 298.151 118.5C298.151 118.5 303.658 118.736 305.745 116.898L303.99 114.65C303.99 114.65 299.737 117.134 296.723 115.819C296.723 115.819 303.11 115.409 303.573 114.167C303.573 114.167 301.845 112.216 301.149 111.918C301.149 111.918 298.061 113.604 296.375 112.694C296.375 112.694 300.591 111.941 300.617 111.44C300.617 111.44 297.735 109.535 295.79 109.395C297.583 109.429 299.336 109.964 300.875 110.946C300.635 109.797 300.086 108.748 299.294 107.928C299.294 107.928 301.302 108.169 301.576 111.412C301.576 111.412 303.774 112.997 303.916 113.436C303.916 113.436 304.069 110.193 303.189 108.259C303.189 108.259 305.128 109.917 304.401 114.009L306.208 116.224C306.208 116.224 306.619 111.941 305.961 110.159C305.961 110.159 307.689 112.177 306.625 116.82L308.084 119.242C308.084 119.242 308.706 115.583 308.374 113.43C308.374 113.43 309.597 115.679 308.48 119.956L309.281 121.698C309.281 121.698 309.686 119.017 309.739 118.236C309.792 117.455 309.992 117.404 309.992 117.404C310.309 119.081 310.183 120.819 309.628 122.423C309.628 122.423 311.046 126.133 311.278 126.06Z" fill="#007BFF"/>
<path opacity="0.1" d="M334.338 398.172C342.176 398.172 348.529 397.027 348.529 395.614C348.529 394.202 342.176 393.057 334.338 393.057C326.5 393.057 320.147 394.202 320.147 395.614C320.147 397.027 326.5 398.172 334.338 398.172Z" fill="#007BFF"/>
<path opacity="0.1" d="M282.605 437C290.443 437 296.797 435.855 296.797 434.443C296.797 433.03 290.443 431.885 282.605 431.885C274.767 431.885 268.414 433.03 268.414 434.443C268.414 435.855 274.767 437 282.605 437Z" fill="#007BFF"/>
<path opacity="0.1" d="M15.0822 417.108C22.9199 417.108 29.2736 415.963 29.2736 414.551C29.2736 413.138 22.9199 411.993 15.0822 411.993C7.24453 411.993 0.890839 413.138 0.890839 414.551C0.890839 415.963 7.24453 417.108 15.0822 417.108Z" fill="#007BFF"/>
<path opacity="0.1" d="M390.245 434.443C398.082 434.443 404.436 433.298 404.436 431.885C404.436 430.473 398.082 429.328 390.245 429.328C382.407 429.328 376.053 430.473 376.053 431.885C376.053 433.298 382.407 434.443 390.245 434.443Z" fill="#007BFF"/>
<path d="M405.021 403.259C416.724 403.259 426.211 401.547 426.211 399.436C426.211 397.326 416.724 395.614 405.021 395.614C393.318 395.614 383.831 397.326 383.831 399.436C383.831 401.547 393.318 403.259 405.021 403.259Z" fill="#007BFF"/>
<path d="M413.806 393.181C414.773 392.342 415.477 391.209 415.824 389.932C416.087 388.639 415.571 387.093 414.417 386.621C413.121 386.093 411.735 387.048 410.681 388.015C409.627 388.982 408.43 390.089 407.055 389.887C407.761 389.203 408.289 388.335 408.589 387.369C408.888 386.403 408.948 385.371 408.762 384.373C408.703 383.959 408.539 383.571 408.288 383.249C407.566 382.428 406.265 382.782 405.4 383.429C402.66 385.486 401.896 389.454 401.88 393.029C401.606 391.742 401.838 390.398 401.833 389.094C401.828 387.79 401.485 386.284 400.436 385.598C399.793 385.215 399.065 385.021 398.328 385.036C397.095 384.991 395.72 385.12 394.882 386.082C393.828 387.273 394.107 389.28 395.014 390.578C395.92 391.877 397.306 392.714 398.581 393.625C399.602 394.275 400.473 395.16 401.132 396.216C401.207 396.363 401.269 396.517 401.316 396.677H409.042C410.771 395.748 412.374 394.571 413.806 393.181Z" fill="#007BFF"/>
<path d="M5.55457 402.663C5.55457 402.663 13.6436 402.399 16.094 400.544C18.5444 398.689 28.5464 396.48 29.1524 399.453C29.7584 402.427 41.3149 414.23 32.1772 414.309C23.0395 414.388 10.9455 412.791 8.51088 411.206C6.07627 409.621 5.55457 402.663 5.55457 402.663Z" fill="#A8A8A8"/>
<path opacity="0.2" d="M32.3301 413.275C23.1923 413.353 11.0983 411.757 8.66371 410.172C6.80877 408.969 6.071 404.647 5.82333 402.652H5.55457C5.55457 402.652 6.08154 409.616 8.50035 411.195C10.9192 412.775 23.029 414.376 32.1667 414.298C34.8015 414.298 35.7132 413.275 35.6658 411.791C35.2969 412.696 34.2904 413.258 32.3301 413.275Z" fill="black"/>
<defs>
<linearGradient id="paint0_linear" x1="83.5097" y1="236.615" x2="247.994" y2="236.615" gradientUnits="userSpaceOnUse">
<stop stop-color="#808080" stop-opacity="0.25"/>
<stop offset="0.54" stop-color="#808080" stop-opacity="0.12"/>
<stop offset="1" stop-color="#808080" stop-opacity="0.1"/>
</linearGradient>
</defs>
</svg>
